<svg width="60" height="60" viewBox="0 0 60 60" fill="none" xmlns="http://www.w3.org/2000/svg">
<path fill-rule="evenodd" clip-rule="evenodd" d="M0 30V16C0 11.5817 1.5621 7.81049 4.68629 4.68629C7.81049 1.5621 11.5817 0 16 0H44C48.4183 0 52.1895 1.5621 55.3137 4.68629C58.4379 7.81049 60 11.5817 60 16V44C60 48.4183 58.4379 52.1895 55.3137 55.3137C52.1895 58.4379 48.4183 60 44 60H16C11.5817 60 7.81049 58.4379 4.68629 55.3137C1.5621 52.1895 0 48.4183 0 44V30Z" fill="white"/>
<path fill-rule="evenodd" clip-rule="evenodd" d="M17.872 43.4231C17.4432 42.6968 17.3275 41.8276 17.5512 41.0144C17.775 40.2014 18.3191 39.5137 19.059 39.1091L40.124 27.2671C41.671 26.3937 43.6319 26.9053 44.5551 28.4231C44.9836 29.1494 45.0992 30.0184 44.8755 30.8315C44.6517 31.6445 44.1078 32.3323 43.368 32.7371L22.3 44.5801C21.8061 44.8582 21.2488 45.0042 20.6819 45.0039C19.5319 45.0098 18.464 44.4089 17.872 43.4231ZM15.439 31.582C15.0105 30.8556 14.8948 29.9865 15.1186 29.1732C15.3423 28.36 15.8862 27.6721 16.626 27.2671L37.691 15.4261C39.238 14.5527 41.1989 15.0643 42.1221 16.5822C42.5508 17.3083 42.6666 18.1775 42.4429 18.9906C42.2191 19.8038 41.675 20.4915 40.9351 20.8961L19.8701 32.738C19.3758 33.0164 18.8182 33.1624 18.251 33.1621C17.1005 33.1687 16.0317 32.5681 15.439 31.582Z" fill="#299D91"/>
</svg>
