<svg width="27" height="22" viewBox="0 0 27 22" fill="none" xmlns="http://www.w3.org/2000/svg">
<path fill-rule="evenodd" clip-rule="evenodd" d="M6.99998 1.00004C5.99918 0.9766 4.9979 1.00541 4.0001 1.08598C3.22172 1.06986 2.4705 1.37211 1.91978 1.9224C1.36912 2.47269 1.0665 3.22367 1.08195 4.00199C1.00101 4.99979 0.972327 6.00101 0.995947 7.00199V14.002C0.995947 16.252 0.855933 15.583 1.63096 16.729C2.04307 17.2876 2.64969 17.6712 3.33097 17.804C3.89097 17.9148 4.46024 17.972 5.03104 17.9749C5.04301 18.3338 5.05497 18.691 5.09 18.9978C5.07377 19.7764 5.37571 20.5279 5.92606 21.0786C6.47636 21.6297 7.22752 21.9322 8.00602 21.9168C8.538 21.9759 9.17899 21.9908 9.887 21.9969C9.92454 22.0003 9.96226 22.0015 9.99992 22H21C22.0007 22.0235 23.0021 21.9952 23.9999 21.9151C24.7784 21.9305 25.5296 21.628 26.0799 21.0769C26.6303 20.5262 26.9322 19.7747 26.916 18.9961C26.9966 17.9983 27.0253 16.9969 27.0019 15.9961L27.002 13.9961C27.0024 13.9566 27.0004 13.9173 26.996 13.878C26.99 13.1712 26.976 12.5323 26.916 12.0013C26.9322 11.2227 26.6303 10.4712 26.0799 9.92045C25.5296 9.36942 24.7785 9.06693 24 9.08231C23.691 9.04838 23.333 9.03642 22.971 9.02421C22.9906 8.9412 22.9997 8.85575 22.998 8.7703C23.0172 7.97123 22.9569 7.17216 22.8179 6.38505C22.6953 5.69682 22.3197 5.07938 21.765 4.65409C20.62 3.85429 21.275 3.99638 19.001 3.99638H16.347C15.3603 4.05253 14.372 3.91972 13.435 3.60526C13.0388 3.43681 12.6939 3.16679 12.435 2.82255C11.9696 2.2703 11.3835 1.8328 10.722 1.54325C9.55302 1.1265 8.31388 0.941444 7.07407 0.998329H7.07401H7.004L6.99998 1.00004ZM6.99998 3.00004C7.99882 2.94389 8.9993 3.07645 9.94895 3.39115C10.3485 3.55839 10.6963 3.82865 10.957 4.17435C11.4191 4.7244 12.0005 5.16166 12.657 5.45316C13.8389 5.87797 15.0935 6.06351 16.3479 5.99906H19C21.2719 5.99906 20.408 6.14994 20.615 6.29911C20.7149 6.37211 20.776 6.42411 20.8609 6.81522C20.9637 7.4705 21.0088 8.13334 20.9959 8.79618C20.9957 8.86576 21.0028 8.9351 21.0169 9.00321H20.3449C19.3583 9.05888 18.37 8.92631 17.433 8.6121C17.0367 8.4434 16.6919 8.17338 16.433 7.82938C15.9674 7.27763 15.3814 6.83988 14.7199 6.55009C13.5503 6.13309 12.3105 5.94804 11.0699 6.00516C11.0469 6.00516 11.0229 6.00516 10.9999 6.00516C9.99912 5.98124 8.99778 6.01005 7.99998 6.0911C7.22159 6.07523 6.47037 6.37724 5.91971 6.92753C5.36906 7.47782 5.06644 8.2288 5.08188 9.00712C5.00101 10.0049 4.97233 11.0064 4.99589 12.0071V15.9771C4.58579 15.9703 4.17692 15.9314 3.77286 15.8611C3.40189 15.7762 3.35984 15.7232 3.28684 15.615C3.14085 15.399 2.99583 16.2561 2.99583 14.0081V7.00809C2.99583 5.76102 3.00181 4.84013 3.0698 4.23417C3.13779 3.62821 3.2548 3.42313 3.33378 3.34428C3.41276 3.26542 3.61777 3.15018 4.22275 3.08231C4.82773 3.01444 5.754 3.00004 6.99998 3.00004ZM11 8.00004C11.9988 7.94389 12.9993 8.07645 13.949 8.39115C14.3482 8.55814 14.6961 8.82816 14.957 9.17338C15.4187 9.72392 16.0002 10.1619 16.657 10.4532C17.8392 10.8782 19.0943 11.0638 20.349 10.9991H21C22.247 10.9991 23.168 11.0052 23.773 11.074C24.378 11.1429 24.585 11.2591 24.664 11.337C24.743 11.4148 24.8579 11.6209 24.926 12.2249C24.9941 12.8289 25 13.753 25 14.9988V15.9988C25 17.2449 24.994 18.1668 24.926 18.7727C24.858 19.3787 24.743 19.5818 24.664 19.6607C24.5849 19.7395 24.379 19.8606 23.773 19.9236C23.167 19.9866 22.247 19.9986 21 19.9986H11C9.75297 19.9986 8.83195 19.9925 8.22697 19.9236C7.62198 19.8548 7.41495 19.7386 7.33597 19.6607C7.25699 19.5828 7.142 19.3767 7.07395 18.7727C7.0059 18.1687 6.99998 17.2452 6.99998 16V12C6.99998 10.753 7.00596 9.83305 7.07395 9.22611C7.14194 8.61918 7.25895 8.4141 7.33793 8.33622C7.41691 8.25834 7.62192 8.14213 8.2269 8.07426C8.83188 8.00639 9.754 8.00004 11 8.00004Z" fill="white" fill-opacity="0.7"/>
</svg>
