<svg width="24" height="24" viewBox="0 0 24 24" fill="none" xmlns="http://www.w3.org/2000/svg">
<circle cx="12" cy="12" r="12" fill="#299D91"/>
<path fill-rule="evenodd" clip-rule="evenodd" d="M11.2857 16.2857V12.7143H7.71429C7.45907 12.7143 7.2233 12.5782 7.09574 12.3571C6.96809 12.1361 6.96809 11.8639 7.09574 11.6429C7.2233 11.4218 7.45907 11.2857 7.71429 11.2857H11.2857V7.71429C11.2857 7.45907 11.4218 7.2233 11.6429 7.09574C11.8639 6.96809 12.1361 6.96809 12.3571 7.09574C12.5782 7.2233 12.7143 7.45907 12.7143 7.71429V11.2857H16.2857C16.5409 11.2857 16.7767 11.4218 16.9043 11.6429C17.0319 11.8639 17.0319 12.1361 16.9043 12.3571C16.7767 12.5782 16.5409 12.7143 16.2857 12.7143H12.7143V16.2857C12.7143 16.5409 12.5782 16.7767 12.3571 16.9043C12.1361 17.0319 11.8639 17.0319 11.6429 16.9043C11.4218 16.7767 11.2857 16.5409 11.2857 16.2857Z" fill="white"/>
</svg>
