<svg width="9" height="9" viewBox="0 0 9 9" fill="none" xmlns="http://www.w3.org/2000/svg">
<path fill-rule="evenodd" clip-rule="evenodd" d="M3.14331 8.54656C2.86538 8.54656 2.60852 8.39826 2.46955 8.15757C2.33059 7.91686 2.33059 7.62031 2.46955 7.37959C2.60852 7.13891 2.86538 6.9906 3.14331 6.9906L5.90908 6.99063L1.05565 2.09535C0.755483 1.7901 0.755483 1.30059 1.05565 0.995342C1.19972 0.849754 1.39604 0.767822 1.60087 0.767822C1.8057 0.767822 2.00201 0.849727 2.14608 0.995315L6.99952 5.89059V3.10125C6.99952 2.82563 7.14657 2.57098 7.38524 2.43316C7.6239 2.29537 7.918 2.29537 8.15667 2.43316C8.39534 2.57098 8.54239 2.82563 8.54239 3.10125V7.76816C8.54281 7.89342 8.51291 8.0169 8.45524 8.12815V8.13424V8.14121C8.41981 8.20521 8.37549 8.26392 8.32362 8.31555C8.24084 8.39945 8.1397 8.46303 8.02813 8.50123H8.02031H8.01419C7.93817 8.52597 7.85874 8.53863 7.77883 8.53871L3.14331 8.54656Z" fill="#EA3A3D"/>
</svg>
