<svg width="22" height="26" viewBox="0 0 22 26" fill="none" xmlns="http://www.w3.org/2000/svg">
<path fill-rule="evenodd" clip-rule="evenodd" d="M11 0C7.73295 0 6.06095 2.64404 6.00596 5.8999C6.00596 5.93286 5.99998 5.96802 5.99998 6V7H1.99998C1.44767 7 0.999979 7.44775 0.999979 8V16C0.963846 17.5779 1.00889 19.1565 1.13499 20.73C1.0944 21.8394 1.51756 22.9155 2.30284 23.7002C3.08805 24.4849 4.16459 24.9072 5.2739 24.866C6.51145 24.9951 7.75633 25.0398 8.99992 25H14C15.2452 25.0403 16.4918 24.9951 17.7309 24.8652C18.953 24.7271 18.966 24.4331 19.702 23.697C20.4219 22.8708 20.8338 21.821 20.868 20.7258C20.9926 19.1536 21.0366 17.5762 21 15.9998V8C21 7.44775 20.5523 7 20 7H16V6C16.0002 5.96167 15.9982 5.92358 15.994 5.88574C15.933 2.63696 14.263 -0.000976562 11 -0.000976562V0ZM11 2C13.219 2 14 3.78101 14 6V7H7.99998V6C7.99998 3.78003 8.78098 2 11 2ZM2.99998 9H5.99998V11C5.99223 11.5525 6.43363 12.0063 6.98594 12.0142C7.53825 12.022 7.99223 11.5806 7.99998 11.0283C7.99998 11.019 7.99998 11.009 7.99998 11V9H14V11C13.9922 11.5525 14.4336 12.0063 14.9859 12.0142C15.5382 12.022 15.9922 11.5806 16 11.0283C16 11.019 16 11.009 16 11V9H19V16C19 17.9929 18.994 19.4771 18.879 20.5C18.8826 21.1428 18.6746 21.7688 18.287 22.2812C18.02 22.5481 18.532 22.759 17.506 22.875C16.3415 22.9944 15.1701 23.0361 14 23H8.99998C7.83195 23.0371 6.6627 22.9966 5.49998 22.8789C4.84611 22.9719 4.18662 22.752 3.71952 22.2849C3.25242 21.8181 3.03221 21.1587 3.12498 20.5049C3.00895 19.479 3.00401 17.9949 3.00401 16V9H2.99998Z" fill="white" fill-opacity="0.7"/>
</svg>
