<svg width="92" height="91" viewBox="0 0 92 91" fill="none" xmlns="http://www.w3.org/2000/svg">
<path d="M46 45.6246C52.6954 45.6246 58.1424 40.1774 58.1424 33.482C58.1424 26.7866 52.6954 21.3396 46 21.3396C39.3046 21.3396 33.8576 26.7866 33.8576 33.482C33.8576 40.1774 39.3046 45.6246 46 45.6246ZM46 23.3396C51.5926 23.3396 56.1424 27.8894 56.1424 33.482C56.1424 39.0746 51.5926 43.6244 46 43.6244C40.4074 43.6244 35.8576 39.0744 35.8576 33.482C35.8576 27.8894 40.4074 23.3396 46 23.3396Z" fill="#A0AEC0"/>
<path d="M39.8576 34.482C40.4098 34.482 40.8576 34.0342 40.8576 33.482C40.8576 30.6464 43.1646 28.3396 46 28.3396C48.8354 28.3396 51.1424 30.6466 51.1424 33.482C51.1424 34.0342 51.59 34.482 52.1424 34.482C52.6948 34.482 53.1424 34.0342 53.1424 33.482C53.1424 29.5436 49.9384 26.3396 46 26.3396C42.0616 26.3396 38.8576 29.5438 38.8576 33.482C38.8576 34.0342 39.3052 34.482 39.8576 34.482Z" fill="#A0AEC0"/>
<path d="M91.899 60.1303C82.6422 41.1335 83.2338 42.3121 83.1192 42.1685C83.0374 42.0653 82.9234 41.9683 82.8016 41.9051C82.6524 41.8269 83.723 42.1297 65.9974 37.3541L72.5628 36.3709C73.0524 36.2975 73.4148 35.8771 73.4148 35.3819V31.5895C73.4148 31.0947 73.053 30.6745 72.5638 30.6007L65.978 29.6079C65.798 28.6729 65.5506 27.7485 65.2392 26.8465L70.4486 22.6963C70.8358 22.3879 70.939 21.8429 70.6916 21.4143L68.799 18.1353C68.5518 17.7069 68.029 17.5231 67.5674 17.7045L61.3616 20.1417C60.734 19.4235 60.0582 18.7491 59.3418 18.1263L61.7848 11.9229C61.966 11.4623 61.7832 10.9385 61.3548 10.6907L58.0686 8.79074C57.6396 8.54274 57.0942 8.64594 56.786 9.03334L52.6336 14.2451C51.7322 13.9371 50.8092 13.6901 49.8754 13.5071L48.8888 6.91894C48.8154 6.42934 48.3948 6.06714 47.8998 6.06714H44.1076C43.6128 6.06714 43.1926 6.42894 43.1188 6.91794L42.1254 13.5069C41.1914 13.6899 40.268 13.9369 39.3666 14.2449L35.2144 9.03314C34.9056 8.64554 34.3598 8.54234 33.931 8.79094L30.652 10.6907C30.2244 10.9385 30.042 11.4615 30.2226 11.9215L32.6598 18.1273C31.9448 18.7521 31.2708 19.4259 30.646 20.1409L24.44 17.7045C23.9802 17.5237 23.457 17.7063 23.2092 18.1339L21.3094 21.4129C21.061 21.8417 21.164 22.3875 21.5514 22.6963L26.7632 26.8485C26.4552 27.7497 26.2082 28.6733 26.025 29.6073L19.436 30.6005C18.9468 30.6743 18.585 31.0947 18.585 31.5893V35.3817C18.585 35.8769 18.9474 36.2973 19.4368 36.3707L26.0252 37.3573C26.0964 37.7209 26.1808 38.0823 26.2712 38.4419C8.9026 42.0191 9.7708 41.8001 9.5276 41.9701C9.2322 42.1755 9.7526 41.2807 0.109604 60.1123C-0.185596 60.6889 0.138004 61.3903 0.767404 61.5407L8.7802 63.4551V84.0673C8.7802 84.5581 9.1366 84.9765 9.6212 85.0545C48.5014 91.3079 46.134 90.9629 46.3908 90.9209L82.3802 85.0541C82.864 84.9751 83.2192 84.5573 83.2192 84.0671V63.4553L91.232 61.5409C91.8528 61.3927 92.1796 60.7065 91.899 60.1303ZM27.0134 40.8071C27.1654 41.2059 27.5452 41.4509 27.9478 41.4509C28.6434 41.4509 29.1326 40.7515 28.8818 40.0941C28.4168 38.8753 28.0768 37.6045 27.8714 36.3171C27.8026 35.8867 27.4632 35.5503 27.032 35.4857L20.5852 34.5203V32.4501L27.033 31.4781C27.4636 31.4131 27.8028 31.0769 27.8714 30.6469C28.0768 29.3595 28.4168 28.0889 28.8818 26.8699C29.037 26.4631 28.9112 26.0027 28.5706 25.7313L23.472 21.6693L24.5086 19.8801L30.582 22.2653C30.987 22.4245 31.4486 22.3031 31.7232 21.9657C32.545 20.9559 33.4736 20.0273 34.4836 19.2053C34.8212 18.9307 34.9424 18.4691 34.7832 18.0641L32.398 11.9907L34.1872 10.9539L38.2492 16.0525C38.5204 16.3929 38.9806 16.5191 39.3878 16.3637C40.6072 15.8985 41.878 15.5585 43.1646 15.3533C43.5948 15.2847 43.931 14.9455 43.996 14.5149L44.968 8.06714H47.0384L48.0036 14.5139C48.0682 14.9449 48.4046 15.2847 48.835 15.3533C50.122 15.5585 51.3926 15.8985 52.612 16.3637C53.0186 16.5191 53.479 16.3929 53.7504 16.0525L57.8132 10.9533L59.6082 11.9911L57.217 18.0631C57.057 18.4695 57.179 18.9327 57.5188 19.2073C58.5278 20.0229 59.458 20.9509 60.284 21.9657C60.5586 22.3035 61.0208 22.4241 61.4252 22.2653L67.497 19.8807L68.5288 21.6683L63.4292 25.7311C63.0872 26.0035 62.9618 26.4665 63.1196 26.8743C63.5904 28.0901 63.9296 29.3573 64.1276 30.6413C64.1942 31.0737 64.5342 31.4125 64.9668 31.4777L71.4144 32.4497V34.5201L64.9678 35.4855C64.5348 35.5503 64.1944 35.8893 64.1276 36.3221C63.9296 37.6061 63.5904 38.8735 63.1196 40.0891C62.9202 40.6041 63.176 41.1833 63.691 41.3827C64.2062 41.5821 64.7852 41.3263 64.9848 40.8113C65.178 40.3121 65.348 39.8041 65.5008 39.2913L77.8388 42.6141L46.2296 48.5171L15.2924 42.7429L26.8548 40.3635C26.9078 40.5117 26.9574 40.6607 27.0134 40.8071ZM10.6488 43.9111L44.5756 50.2431L33.4732 67.2985L2.4698 59.8913L10.6488 43.9111ZM33.9268 69.4351C34.2598 69.4351 34.5774 69.2683 34.7648 68.9807L45.23 52.9039V81.2933L10.7804 75.7483V63.9331C35.2052 69.7583 33.7024 69.4351 33.9268 69.4351ZM10.7804 77.7741L45.23 83.3191V88.7605L10.7804 83.2155V77.7741ZM47.23 88.7581V83.3173L81.2194 77.7765V83.2173L47.23 88.7581ZM81.2196 75.7499L47.23 81.2907V53.0137L57.2258 68.9659C57.4522 69.3271 57.8842 69.5077 58.3056 69.4077L81.2194 63.9331V75.7499H81.2196ZM58.5392 67.2957L47.8572 50.2483L81.775 43.9143L89.555 59.8855L58.5392 67.2957Z" fill="#A0AEC0"/>
<path d="M10.8 20.0671C14.6598 20.0671 17.8 16.9269 17.8 13.0671C17.8 9.20734 14.6598 6.06714 10.8 6.06714C6.94022 6.06714 3.80002 9.20734 3.80002 13.0671C3.80002 16.9269 6.94022 20.0671 10.8 20.0671ZM10.8 8.06714C13.557 8.06714 15.8 10.3101 15.8 13.0671C15.8 15.8241 13.557 18.0671 10.8 18.0671C8.04302 18.0671 5.80002 15.8241 5.80002 13.0671C5.80002 10.3101 8.04302 8.06714 10.8 8.06714Z" fill="#A0AEC0"/>
<path d="M82.8 26.0671C85.557 26.0671 87.8 23.8241 87.8 21.0671C87.8 18.3101 85.557 16.0671 82.8 16.0671C80.043 16.0671 77.8 18.3101 77.8 21.0671C77.8 23.8243 80.043 26.0671 82.8 26.0671ZM82.8 18.0671C84.4542 18.0671 85.8 19.4129 85.8 21.0671C85.8 22.7213 84.4542 24.0671 82.8 24.0671C81.1456 24.0671 79.8 22.7213 79.8 21.0671C79.8 19.4129 81.1456 18.0671 82.8 18.0671Z" fill="#A0AEC0"/>
<path d="M70.2996 6.06738C71.128 6.06738 71.7996 5.39581 71.7996 4.56738C71.7996 3.73896 71.128 3.06738 70.2996 3.06738C69.4712 3.06738 68.7996 3.73896 68.7996 4.56738C68.7996 5.39581 69.4712 6.06738 70.2996 6.06738Z" fill="#A0AEC0"/>
<path d="M86.3004 6.06738C87.1288 6.06738 87.8004 5.39581 87.8004 4.56738C87.8004 3.73896 87.1288 3.06738 86.3004 3.06738C85.472 3.06738 84.8004 3.73896 84.8004 4.56738C84.8004 5.39581 85.472 6.06738 86.3004 6.06738Z" fill="#A0AEC0"/>
<path d="M85.3004 34.0674C86.1288 34.0674 86.8004 33.3958 86.8004 32.5674C86.8004 31.739 86.1288 31.0674 85.3004 31.0674C84.472 31.0674 83.8004 31.739 83.8004 32.5674C83.8004 33.3958 84.472 34.0674 85.3004 34.0674Z" fill="#A0AEC0"/>
<path d="M28.2996 3.06665C29.128 3.06665 29.7996 2.39508 29.7996 1.56665C29.7996 0.738223 29.128 0.0666504 28.2996 0.0666504C27.4712 0.0666504 26.7996 0.738223 26.7996 1.56665C26.7996 2.39508 27.4712 3.06665 28.2996 3.06665Z" fill="#A0AEC0"/>
<path d="M4.30042 75.0667C5.12884 75.0667 5.80042 74.3951 5.80042 73.5667C5.80042 72.7382 5.12884 72.0667 4.30042 72.0667C3.47199 72.0667 2.80042 72.7382 2.80042 73.5667C2.80042 74.3951 3.47199 75.0667 4.30042 75.0667Z" fill="#A0AEC0"/>
<path d="M88.2996 75.0667C89.128 75.0667 89.7996 74.3951 89.7996 73.5667C89.7996 72.7382 89.128 72.0667 88.2996 72.0667C87.4712 72.0667 86.7996 72.7382 86.7996 73.5667C86.7996 74.3951 87.4712 75.0667 88.2996 75.0667Z" fill="#A0AEC0"/>
<path d="M5.29959 31.0667C6.12802 31.0667 6.79959 30.3951 6.79959 29.5667C6.79959 28.7382 6.12802 28.0667 5.29959 28.0667C4.47116 28.0667 3.79959 28.7382 3.79959 29.5667C3.79959 30.3951 4.47116 31.0667 5.29959 31.0667Z" fill="#A0AEC0"/>
</svg>
