<svg width="57" height="56" viewBox="0 0 57 56" fill="none" xmlns="http://www.w3.org/2000/svg">
<circle cx="28.6584" cy="28.0038" r="27.7875" fill="#F4F7FE"/>
<g clip-path="url(#clip0_17_2649)">
<path d="M21.001 24.3454H21.2726C22.3183 24.3454 23.1738 25.2009 23.1738 26.2466V35.7527C23.1738 36.7984 22.3183 37.6539 21.2726 37.6539H21.001C19.9553 37.6539 19.0998 36.7984 19.0998 35.7527V26.2466C19.0998 25.2009 19.9553 24.3454 21.001 24.3454ZM28.6059 18.6417C29.6516 18.6417 30.5071 19.4972 30.5071 20.5429V35.7527C30.5071 36.7984 29.6516 37.6539 28.6059 37.6539C27.5602 37.6539 26.7047 36.7984 26.7047 35.7527V20.5429C26.7047 19.4972 27.5602 18.6417 28.6059 18.6417ZM36.2108 29.5058C37.2565 29.5058 38.112 30.3614 38.112 31.407V35.7527C38.112 36.7984 37.2565 37.6539 36.2108 37.6539C35.1651 37.6539 34.3096 36.7984 34.3096 35.7527V31.407C34.3096 30.3614 35.1651 29.5058 36.2108 29.5058Z" fill="#299D91"/>
</g>
<defs>
<clipPath id="clip0_17_2649">
<rect width="32.5924" height="32.5924" fill="white" transform="translate(12.3098 11.8516)"/>
</clipPath>
</defs>
</svg>
