<svg width="190" height="220" viewBox="0 0 190 220" fill="none" xmlns="http://www.w3.org/2000/svg">
<path d="M132.172 189.688H73.7472C63.7268 189.688 55.5288 181.523 55.5288 171.542V120.128C55.5288 110.148 63.7268 101.983 73.7472 101.983H132.172C142.193 101.983 150.391 110.148 150.391 120.128V171.542C150.391 181.522 142.192 189.688 132.172 189.688Z" fill="white"/>
<path d="M132.172 101.982C142.192 101.982 150.39 110.147 150.39 120.128V171.542C150.39 181.522 142.192 189.687 132.172 189.687H73.7475C63.7271 189.687 55.5291 181.522 55.5291 171.542V120.128C55.5291 110.147 63.7271 101.982 73.7475 101.982H132.172ZM132.172 99.1138H73.7475C70.9098 99.1138 68.1511 99.6727 65.5479 100.774C63.0385 101.836 60.7833 103.353 58.8448 105.284C56.9064 107.215 55.3827 109.462 54.3164 111.961C53.2106 114.554 52.6494 117.301 52.6494 120.128V171.542C52.6494 174.368 53.2106 177.116 54.3164 179.709C55.3827 182.208 56.9056 184.454 58.8448 186.385C60.7833 188.315 63.0393 189.833 65.5479 190.895C68.1511 191.997 70.9098 192.555 73.7475 192.555H132.173C135.01 192.555 137.769 191.997 140.372 190.895C142.882 189.833 145.137 188.316 147.075 186.385C149.014 184.454 150.537 182.207 151.604 179.709C152.71 177.116 153.271 174.368 153.271 171.542V120.128C153.271 117.301 152.71 114.554 151.604 111.961C150.537 109.461 149.015 107.215 147.075 105.284C145.137 103.354 142.881 101.836 140.372 100.774C137.769 99.6727 135.01 99.1138 132.172 99.1138Z" fill="#258F84"/>
<path d="M149.084 157.896C139.987 158.959 130.921 159.22 130.921 159.22C130.921 159.22 126.303 136.288 125.023 118.305C124.08 104.981 124.967 94.378 130.921 97.8362C133.66 99.4277 136.814 102.424 140.103 106.226C152.441 120.489 166.615 146.101 167.393 151.415C167.895 154.833 158.477 156.793 149.084 157.896Z" fill="white"/>
<path d="M129.703 160.747L129.454 159.514C129.426 159.373 126.603 145.282 124.775 130.692C123.697 122.09 123.171 114.988 123.209 109.583C123.26 102.202 124.337 98.0149 126.595 96.4079C127.587 95.7023 129.273 95.1549 131.676 96.5505C139.596 101.153 149.647 115.813 154.934 124.142C158.461 129.698 161.837 135.539 164.441 140.587C166.275 144.143 168.534 148.872 168.875 151.2C168.975 151.876 168.908 152.901 168.028 153.945C166.755 155.454 164.111 156.636 159.707 157.662C156.478 158.414 152.329 159.062 147.374 159.586C138.986 160.474 131.044 160.709 130.965 160.711L129.703 160.747ZM128.859 98.6672C128.57 98.6672 128.418 98.7754 128.335 98.8335C127.359 99.5285 124.431 103.85 127.744 130.308C129.244 142.29 131.422 153.939 132.146 157.684C134.7 157.582 140.761 157.288 147.075 156.619C161.733 155.066 165.007 152.89 165.736 152.027C165.937 151.789 165.921 151.678 165.913 151.631C165.488 148.734 159.958 137.637 152.404 125.735C143.656 111.953 135.552 102.253 130.168 99.1253C129.557 98.7705 129.142 98.6672 128.859 98.6672Z" fill="#258F84"/>
<path d="M84.6339 96.9906L82.7926 110.863L81.7452 118.749L79.5114 135.588C79.5114 135.588 75.4288 138.354 68.6378 140.545C66.1004 141.365 63.1779 142.099 59.9527 142.58C54.6804 143.37 48.5846 143.47 41.9803 142.125C24.9886 138.658 14.7913 126.088 10.3764 119.767C1.84349 107.568 0.530359 104.269 2.90238 99.1335C4.71328 95.1976 7.81592 94.4789 7.81592 94.4789C7.81592 94.4789 7.66288 91.3338 10.1624 90.2152C17.6537 86.8643 27.3039 95.813 27.3039 95.813C27.3039 95.813 27.6634 86.1899 32.8345 88.4115C36.397 89.9431 37.205 100.42 37.205 100.42C37.205 100.42 41.9869 106.54 49.5834 107.352C53.5532 107.777 59.0468 106.629 64.5026 104.963C64.5659 104.944 64.6301 104.926 64.6934 104.903C67.6011 104.009 70.4898 102.973 73.135 101.948C74.3214 101.49 75.4585 101.031 76.5248 100.591C81.2918 98.623 84.6339 96.9906 84.6339 96.9906Z" fill="white"/>
<path opacity="0.35" d="M10.3739 119.767C14.7929 126.086 24.9886 138.659 41.9786 142.125C52.621 144.293 61.947 142.7 68.6385 140.542C75.4296 138.354 79.5113 135.586 79.5113 135.586L79.8108 122.298C79.8108 122.298 75.1836 117.857 70.874 119.668C65.6955 121.844 67.355 129.239 59.9592 131.296C39.3993 137.015 22.6972 126.567 17.3229 121.98C9.86705 115.618 7.92205 111.611 6.87303 109.957C4.70176 106.536 3.02497 103.847 2.07962 101.439C1.11617 105.512 3.17307 109.468 10.3739 119.767Z" fill="#258F84"/>
<path d="M52.2317 144.648C48.6839 144.648 45.151 144.293 41.679 143.584C34.0413 142.026 26.9153 138.519 20.5002 133.158C16.3716 129.708 12.5515 125.489 9.14695 120.619C4.99201 114.676 2.35094 110.593 1.14642 107.313C-0.00791463 104.171 0.106449 101.621 1.5397 98.5098C2.95074 95.4466 5.08416 94.0379 6.37342 93.434C6.58405 91.8589 7.40435 89.816 9.54846 88.8572C15.6402 86.1316 22.6699 90.3495 26.1493 92.9456C26.1831 92.7694 26.2209 92.5891 26.2612 92.4063C26.838 89.8299 27.8335 88.0812 29.2199 87.21C30.0714 86.6749 31.4923 86.2119 33.4299 87.0453C35.3955 87.891 36.8296 90.3814 37.8153 94.6583C38.3196 96.8495 38.5623 98.9064 38.6537 99.8177C39.7117 101.011 43.8469 105.239 49.7445 105.87C60.5103 107.018 83.7402 95.7654 83.9738 95.6515C84.4691 95.4097 85.0582 95.4589 85.5058 95.7801C85.9534 96.1005 86.1879 96.6414 86.1163 97.1855L80.9971 135.781C80.9411 136.202 80.7083 136.579 80.3553 136.818C80.1842 136.934 76.0786 139.69 69.2522 141.912C65.2535 143.213 61.1397 144.06 57.0259 144.432C55.4273 144.576 53.8278 144.648 52.2317 144.648ZM8.16211 95.9268C7.96876 95.9793 5.68395 96.6611 4.25975 99.7521C2.34189 103.915 2.81333 106.342 11.6029 118.915C19.8667 130.735 30.4738 138.255 42.2787 140.663C53.0347 142.857 62.3772 141.011 68.3208 139.077C73.3594 137.437 76.8339 135.481 78.1191 134.7L82.7891 99.4956C80.3496 100.605 76.3592 102.348 71.8809 104.02C61.9123 107.74 54.3561 109.36 49.4253 108.834C41.2906 107.966 36.2356 101.607 36.0241 101.336C35.8439 101.105 35.7353 100.826 35.7131 100.535C35.7115 100.51 35.5082 97.9657 34.8895 95.2925C33.8471 90.7862 32.5998 89.9348 32.2427 89.7816C31.3492 89.3972 30.9633 89.639 30.8177 89.7299C29.5597 90.5183 28.8784 93.7945 28.7961 95.8686C28.7731 96.4505 28.4111 96.9667 27.8705 97.1888C27.3292 97.4109 26.7088 97.2994 26.2801 96.902C26.1913 96.82 17.2668 88.6712 10.7744 91.5762C9.2786 92.2457 9.30575 94.2649 9.30986 94.41C9.35429 95.1458 8.88532 95.7744 8.16211 95.9268Z" fill="#258F84"/>
<path d="M28.535 95.8113C28.5695 96.2301 28.507 96.6111 28.4231 96.9414C28.3811 97.1118 28.3293 97.2593 28.2766 97.4109C28.2232 97.5527 28.1648 97.6969 28.1072 97.8256C27.871 98.355 27.616 98.7934 27.3733 99.2187C27.1297 99.6415 26.8952 100.044 26.6772 100.447L26.5176 100.75C26.4674 100.852 26.4139 100.953 26.3654 101.055L26.2239 101.363L26.0889 101.675L25.9663 101.991L25.8528 102.312C25.8141 102.42 25.7853 102.529 25.7508 102.638C25.7146 102.747 25.6874 102.859 25.6578 102.969C25.5443 103.415 25.4464 103.874 25.3896 104.347C25.3279 104.819 25.2884 105.303 25.2769 105.796C25.2645 106.043 25.2695 106.291 25.267 106.543C25.2629 106.669 25.2736 106.794 25.2744 106.921C25.2769 107.048 25.281 107.175 25.2802 107.304V107.313C25.2802 107.412 25.1995 107.492 25.0991 107.492C25.0292 107.492 24.9691 107.453 24.9395 107.395C24.6993 106.931 24.4821 106.449 24.3142 105.946C24.1373 105.444 24.0106 104.921 23.9177 104.386C23.735 103.316 23.7391 102.184 23.9399 101.077L24.023 100.664C24.0551 100.528 24.0904 100.393 24.1242 100.256C24.1604 100.121 24.2007 99.9882 24.2385 99.853C24.278 99.7194 24.3249 99.5891 24.3685 99.4571C24.5487 98.9327 24.7717 98.4344 25.0012 97.9673C25.23 97.5011 25.4735 97.061 25.671 96.6791C25.8791 96.2923 25.9968 95.9785 26.0659 95.8089L26.2107 95.454C26.4625 94.8386 27.1676 94.5428 27.7855 94.7935C28.2223 94.9722 28.498 95.3745 28.535 95.8113Z" fill="#258F84"/>
<path d="M40.3349 143.148C39.9573 143.148 39.5928 142.94 39.4134 142.58C39.16 142.074 39.3673 141.459 39.8758 141.207C44.025 139.151 46.8602 132.734 48.073 122.651C49.0134 114.836 48.6226 107.568 48.6185 107.496C48.5872 106.932 49.0208 106.448 49.5877 106.416C50.1521 106.384 50.64 106.817 50.6721 107.381C50.6762 107.455 51.0769 114.878 50.1184 122.867C49.5515 127.595 48.6259 131.606 47.3671 134.79C45.738 138.91 43.5256 141.686 40.7924 143.041C40.6451 143.114 40.4888 143.148 40.3349 143.148Z" fill="#258F84"/>
<g opacity="0.35">
<g opacity="0.35">
<g opacity="0.35">
<g opacity="0.35">
<path opacity="0.35" d="M173.069 209.083V208.874C171.424 208.945 173.069 209.083 173.069 209.083Z" fill="#258F84"/>
</g>
</g>
</g>
</g>
<path d="M152.31 183.918H53.5048C53.5048 183.918 54.1071 166.934 59.952 142.579C62.2944 132.811 65.4826 121.857 69.8119 110.337C70.8519 107.571 71.9602 104.772 73.1351 101.947C76.4204 94.0642 80.252 85.9915 84.7204 77.9189H121.096C124.789 84.5935 128.048 91.2649 130.922 97.8354C132.781 102.084 134.48 106.288 136.029 110.418C142.791 128.419 146.762 145.034 149.085 157.896C151.951 173.762 152.31 183.918 152.31 183.918Z" fill="white"/>
<path d="M138.746 123.084C140.655 125.208 141.528 127.679 142.335 130.161C142.74 131.403 143.139 132.647 143.52 133.896C143.71 134.521 143.906 135.144 144.077 135.775C144.252 136.403 144.422 137.034 144.593 137.664L145.093 139.558C145.258 140.19 145.424 140.821 145.579 141.456L146.488 145.267C146.636 145.903 146.798 146.534 146.943 147.171L147.377 149.08L147.822 150.987C147.971 151.622 148.126 152.257 148.266 152.894L149.123 156.716C149.271 157.351 149.397 157.992 149.533 158.631L149.935 160.547L150.135 161.505L150.236 161.985L150.329 162.465L150.705 164.387C150.831 165.027 150.96 165.667 151.095 166.306C151.225 166.946 151.356 167.586 151.493 168.225C152.066 170.776 152.483 173.36 152.657 175.977C152.679 176.304 152.705 176.63 152.72 176.959L152.762 177.943C152.784 178.6 152.802 179.257 152.792 179.918C152.788 180.578 152.773 181.238 152.73 181.901C152.692 182.564 152.637 183.227 152.536 183.895C152.517 184.024 152.396 184.112 152.267 184.093C152.179 184.08 152.11 184.02 152.08 183.943L152.08 183.94C151.607 182.69 151.221 181.435 150.857 180.18C150.678 179.552 150.505 178.922 150.338 178.294L150.097 177.349C150.022 177.034 149.944 176.719 149.865 176.403C149.559 175.142 149.289 173.878 149.046 172.608C148.929 171.972 148.823 171.334 148.726 170.695C148.621 170.057 148.525 169.417 148.426 168.778C148.329 168.138 148.227 167.5 148.123 166.861C148.013 166.224 147.89 165.589 147.766 164.954L147.393 163.048L147.3 162.572L147.201 162.097L147.001 161.147L146.603 159.247C146.468 158.614 146.342 157.979 146.197 157.348L145.346 153.559C145.209 152.926 145.05 152.299 144.899 151.669L144.434 149.784L143.958 147.901C143.881 147.587 143.793 147.275 143.709 146.963L143.453 146.026L142.425 142.281C142.07 141.036 141.706 139.794 141.36 138.547C141.187 137.923 141.014 137.3 140.846 136.674L140.721 136.206L140.589 135.739L140.328 134.804C139.98 133.557 139.65 132.305 139.325 131.051L139.086 130.109C139.007 129.795 138.919 129.484 138.835 129.17C138.668 128.544 138.528 127.91 138.423 127.265C138.318 126.619 138.245 125.964 138.217 125.294C138.202 124.958 138.2 124.619 138.213 124.275C138.226 123.931 138.248 123.582 138.309 123.223L138.311 123.209C138.334 123.073 138.464 122.981 138.6 123.004C138.659 123.015 138.71 123.044 138.746 123.084Z" fill="#258F84"/>
<path d="M53.273 183.911C53.1208 183.573 53.0163 183.238 52.9184 182.901C52.8205 182.563 52.7473 182.23 52.6823 181.894C52.5506 181.222 52.4799 180.554 52.4404 179.888C52.4223 179.554 52.4099 179.222 52.4107 178.89C52.4116 178.558 52.4247 178.228 52.4404 177.897L52.4963 176.907C52.5136 176.576 52.5342 176.246 52.5613 175.917C52.6642 174.599 52.7645 173.28 52.9192 171.968C52.9891 171.311 53.0673 170.656 53.1447 169.999C53.1825 169.671 53.2335 169.345 53.2779 169.017L53.417 168.037L53.7074 166.077C53.8094 165.425 53.9279 164.776 54.039 164.125C54.2661 162.825 54.48 161.523 54.7392 160.229C54.9909 158.933 55.2213 157.634 55.4788 156.341C55.7405 155.049 55.9955 153.755 56.2473 152.46C56.3115 152.136 56.369 151.812 56.439 151.49L56.6463 150.523L57.0602 148.589L57.474 146.655C57.5094 146.493 57.5415 146.332 57.5785 146.171L57.692 145.69L57.9191 144.727L58.8266 140.877C58.8999 140.555 58.9821 140.236 59.0636 139.916C59.1426 139.596 59.2232 139.276 59.2989 138.956C59.4519 138.314 59.6033 137.673 59.749 137.029C59.8979 136.387 60.0435 135.743 60.1974 135.101C60.3455 134.458 60.5314 133.825 60.7173 133.192C60.9074 132.56 61.109 131.931 61.3204 131.305C61.5327 130.68 61.7581 130.058 61.986 129.438L62.3382 128.51C62.3974 128.356 62.4632 128.204 62.5274 128.05C62.5924 127.898 62.6549 127.745 62.7224 127.592C62.9882 126.983 63.2572 126.377 63.5435 125.776C63.8266 125.174 64.1219 124.577 64.4321 123.985C64.7423 123.393 65.064 122.806 65.4211 122.23C65.4894 122.12 65.635 122.085 65.7461 122.154C65.8218 122.201 65.8621 122.284 65.858 122.367V122.37C65.7099 125.075 65.2014 127.648 64.6995 130.22C64.5703 130.862 64.4387 131.503 64.2939 132.14C64.1483 132.777 63.9919 133.41 63.8257 134.041C63.4785 135.298 63.1297 136.554 62.766 137.808C62.5842 138.435 62.4073 139.062 62.232 139.691C62.1432 140.005 62.0601 140.32 61.9753 140.635C61.8922 140.95 61.8067 141.265 61.7359 141.584L60.8383 145.394L60.6137 146.346L60.5018 146.822C60.4648 146.981 60.4327 147.141 60.3981 147.3L59.9884 149.213L59.5786 151.127L59.3738 152.084C59.3055 152.403 59.2479 152.724 59.1845 153.043C58.133 158.156 57.4263 163.33 56.7393 168.494L56.4727 170.429C56.3896 171.075 56.3065 171.721 56.216 172.366L55.6862 176.236C55.5899 176.881 55.5126 177.526 55.4253 178.171C55.3801 178.493 55.3324 178.816 55.2723 179.137C55.2131 179.458 55.1547 179.78 55.0823 180.1C54.9383 180.741 54.7597 181.38 54.5483 182.018C54.443 182.336 54.3171 182.656 54.1879 182.974C54.0554 183.292 53.9115 183.612 53.7337 183.929L53.7321 183.932C53.663 184.055 53.5075 184.099 53.3841 184.03C53.3322 184.001 53.2952 183.958 53.273 183.911Z" fill="#258F84"/>
<path d="M81.9624 162.49C76.3273 164.763 67.606 164.288 61.6607 163.57C58.0949 163.141 55.5912 159.863 56.117 156.324C56.5966 153.094 59.4508 150.746 62.7246 150.898C68.2856 151.158 76.6276 151.279 81.9105 150.112" fill="white"/>
<g opacity="0.35">
<g opacity="0.35">
<g opacity="0.35">
<g opacity="0.35">
<path opacity="0.35" d="M81.9639 162.489C76.3271 164.765 67.6059 164.285 61.6606 163.573C58.0947 163.143 55.5919 159.863 56.1176 156.326C56.2221 155.604 56.45 154.927 56.7734 154.308C57.7122 156.093 59.4901 157.41 61.6606 157.672C67.5952 158.389 76.3016 158.864 81.9392 156.603L81.9639 162.489Z" fill="#258F84"/>
</g>
</g>
</g>
</g>
<path d="M70.7588 165.654C67.4982 165.654 64.2565 165.386 61.4805 165.051C59.3545 164.795 57.4679 163.72 56.1679 162.023C54.8655 160.324 54.3217 158.223 54.636 156.107C54.9223 154.178 55.9112 152.434 57.4202 151.194C58.9308 149.952 60.8396 149.319 62.7945 149.411C70.9867 149.793 77.6601 149.525 81.5855 148.658C82.3737 148.485 84.3319 148.478 85.4879 152.18C86.662 155.94 86.532 162.258 82.5243 163.874C79.2193 165.205 74.9738 165.654 70.7588 165.654ZM62.4209 152.382C60.007 152.382 57.955 154.133 57.5979 156.542C57.4029 157.855 57.7402 159.159 58.5482 160.214C59.3537 161.265 60.5228 161.931 61.8409 162.09C70.3425 163.115 77.2899 162.767 81.4012 161.109C82.6222 160.616 82.9727 158.645 83.0673 157.821C83.3964 154.936 82.5152 152.272 81.9632 151.627C76.6053 152.748 68.5316 152.662 62.6554 152.388C62.5764 152.384 62.4983 152.382 62.4209 152.382Z" fill="#258F84"/>
<path d="M125.066 162.49C130.701 164.763 139.423 164.288 145.368 163.57C148.934 163.141 151.437 159.863 150.912 156.324C150.432 153.094 147.578 150.746 144.304 150.898C138.743 151.158 130.401 151.279 125.118 150.112" fill="white"/>
<g opacity="0.35">
<g opacity="0.35">
<g opacity="0.35">
<g opacity="0.35">
<path opacity="0.35" d="M145.366 163.573C139.421 164.285 130.7 164.765 125.063 162.49L125.087 156.548C130.724 158.809 139.431 158.334 145.366 157.617C147.527 157.36 149.295 156.053 150.238 154.278C150.571 154.901 150.804 155.589 150.914 156.326C151.435 159.863 148.933 163.143 145.366 163.573Z" fill="#258F84"/>
</g>
</g>
</g>
</g>
<path d="M136.27 165.654C132.055 165.654 127.81 165.205 124.504 163.873C120.497 162.257 120.367 155.94 121.541 152.179C122.696 148.478 124.655 148.484 125.443 148.658C129.369 149.526 136.043 149.793 144.234 149.41C146.191 149.319 148.098 149.952 149.609 151.193C151.117 152.433 152.106 154.178 152.393 156.106C152.707 158.222 152.162 160.323 150.861 162.023C149.561 163.719 147.674 164.794 145.548 165.05C142.772 165.385 139.53 165.654 136.27 165.654ZM125.066 151.627C124.514 152.272 123.633 154.937 123.962 157.821C124.056 158.645 124.406 160.616 125.628 161.109C129.74 162.767 136.687 163.116 145.189 162.091C146.506 161.932 147.676 161.265 148.481 160.214C149.289 159.159 149.627 157.855 149.432 156.542C149.063 154.056 146.889 152.272 144.375 152.388C138.497 152.662 130.424 152.748 125.066 151.627Z" fill="#258F84"/>
<path d="M127.244 146.022V165.858C127.244 169.539 124.22 172.551 120.525 172.551H83.8467C80.1566 172.551 77.1322 169.539 77.1322 165.858V146.022C77.1322 142.342 80.1566 139.334 83.8467 139.334H120.525C122.7 139.334 124.642 140.378 125.873 141.985C126.732 143.108 127.244 144.509 127.244 146.022Z" fill="white"/>
<g opacity="0.35">
<g opacity="0.35">
<g opacity="0.35">
<g opacity="0.35">
<path opacity="0.35" d="M127.243 146.022V165.858C127.243 169.539 124.22 172.549 120.525 172.549H83.8479C80.1529 172.549 77.13 169.539 77.13 165.858V158.439C82.6384 164.033 93.4717 167.544 103.407 167.597C106.6 167.614 109.175 165.099 109.403 161.927C109.405 161.895 109.408 161.863 109.41 161.832C109.655 159.049 111.956 156.795 114.753 156.594C117.939 156.366 120.629 158.709 120.944 161.755C125.753 155.842 124.344 145.564 125.874 141.985C126.734 143.11 127.243 144.508 127.243 146.022Z" fill="#258F84"/>
</g>
</g>
</g>
</g>
<path d="M120.526 174.041H83.8472C79.3187 174.041 75.6344 170.371 75.6344 165.861V146.022C75.6344 141.512 79.3187 137.842 83.8472 137.842H120.526C125.054 137.842 128.739 141.512 128.739 146.022V165.861C128.739 170.371 125.054 174.041 120.526 174.041ZM83.8472 140.823C80.9692 140.823 78.6276 143.156 78.6276 146.022V165.861C78.6276 168.727 80.9692 171.06 83.8472 171.06H120.526C123.404 171.06 125.746 168.727 125.746 165.861V146.022C125.746 143.156 123.404 140.823 120.526 140.823H83.8472Z" fill="#258F84"/>
<path d="M115.18 161.71C118.379 161.71 120.973 159.127 120.973 155.941C120.973 152.755 118.379 150.172 115.18 150.172C111.981 150.172 109.388 152.755 109.388 155.941C109.388 159.127 111.981 161.71 115.18 161.71Z" fill="#22A7F0"/>
<g opacity="0.7">
<g opacity="0.7">
<g opacity="0.7">
<g opacity="0.7">
<path opacity="0.7" d="M120.972 155.941C120.972 156.336 120.935 156.72 120.86 157.094C120.325 154.456 117.985 152.472 115.182 152.472C112.375 152.472 110.035 154.456 109.5 157.094C109.425 156.72 109.387 156.337 109.387 155.941C109.387 152.753 111.981 150.174 115.182 150.174C118.377 150.174 120.972 152.753 120.972 155.941Z" fill="white"/>
</g>
</g>
</g>
</g>
<g opacity="0.35">
<g opacity="0.35">
<g opacity="0.35">
<g opacity="0.35">
<path opacity="0.35" d="M120.971 155.94C120.971 159.126 118.379 161.708 115.18 161.708C111.982 161.708 109.39 159.126 109.39 155.94C109.39 155.204 109.529 154.501 109.787 153.853C110.622 156.005 112.723 157.529 115.181 157.529C117.64 157.529 119.74 156.005 120.575 153.853C120.832 154.501 120.971 155.203 120.971 155.94Z" fill="#258F84"/>
</g>
</g>
</g>
</g>
<path d="M115.18 162.828C111.368 162.828 108.266 159.739 108.266 155.941C108.266 152.144 111.368 149.054 115.18 149.054C118.993 149.054 122.095 152.144 122.095 155.941C122.095 159.739 118.993 162.828 115.18 162.828ZM115.18 151.291C112.606 151.291 110.511 153.377 110.511 155.941C110.511 158.505 112.606 160.592 115.18 160.592C117.755 160.592 119.85 158.505 119.85 155.941C119.85 153.377 117.755 151.291 115.18 151.291Z" fill="#258F84"/>
<path d="M98.7676 173.668C98.1472 173.668 97.6453 173.167 97.6453 172.55V158.963L90.3104 153.463V139.333C90.3104 138.715 90.8131 138.215 91.4326 138.215C92.0522 138.215 92.5549 138.716 92.5549 139.333V152.347L99.8898 157.847V172.55C99.8898 173.167 99.3871 173.668 98.7676 173.668Z" fill="#258F84"/>
<path d="M102.906 183.231C109.394 183.231 115.633 180.833 120.506 176.566C127.256 170.656 138.619 163.607 151.162 168.128C156.194 169.941 159.624 173.267 161.964 176.948C167.99 163.041 180.63 162.208 186.102 170.089C186.102 170.089 176.905 213.79 173.908 214.763C169.614 216.156 159.296 214.691 159.296 214.691C159.296 214.691 123.402 209.851 102.906 209.851C82.4091 209.851 46.5153 214.691 46.5153 214.691C46.5153 214.691 36.1979 216.155 31.9039 214.763C28.9066 213.79 19.7097 170.089 19.7097 170.089C25.1803 162.207 37.822 163.041 43.8479 176.948C46.187 173.266 49.6171 169.941 54.65 168.128C67.1921 163.607 78.5553 170.656 85.3052 176.566C90.1785 180.832 96.4175 183.231 102.906 183.231Z" fill="white"/>
<g opacity="0.35">
<path d="M186.103 170.088C186.103 170.088 176.905 213.79 173.908 214.763C169.616 216.157 159.296 214.693 159.296 214.693C159.296 214.693 123.404 209.851 102.905 209.851C82.4112 209.851 46.5149 214.693 46.5149 214.693C46.5149 214.693 36.1983 216.157 31.9068 214.763C28.9095 213.79 19.7118 170.088 19.7118 170.088C20.6136 168.791 21.7062 167.728 22.9338 166.924C25.8825 179.737 30.0655 196.468 31.9068 197.064C36.1991 198.454 46.5149 196.99 46.5149 196.99C46.5149 196.99 82.4112 187.307 102.905 187.307C123.404 187.307 159.296 196.99 159.296 196.99C159.296 196.99 169.616 198.454 173.908 197.064C175.749 196.468 179.932 179.737 182.881 166.924C184.109 167.729 185.201 168.791 186.103 170.088Z" fill="#258F84"/>
</g>
<path d="M37.4378 216.85C35.1867 216.85 32.9875 216.682 31.4407 216.181C30.3859 215.838 29.499 214.674 27.8345 209.51C26.8604 206.486 25.6912 202.277 24.3608 196.998C21.9649 187.493 19.6299 176.834 18.7372 172.692C18.2699 170.524 18.9832 168.281 20.6 166.84C23.7034 164.073 27.8633 163.007 32.0117 163.917C34.6264 164.491 37.1704 165.85 39.3688 167.849C41.1896 169.505 42.7726 171.573 44.0923 174.02C46.7704 170.616 50.142 168.168 54.1423 166.726C58.6749 165.092 63.4173 164.768 68.2387 165.762C72.1312 166.565 76.0895 168.229 80.0025 170.711C80.7002 171.153 80.9051 172.074 80.4616 172.769C80.0182 173.464 79.0926 173.668 78.3949 173.226C70.3408 168.119 62.5238 166.876 55.1609 169.531C51.0084 171.027 47.6277 173.79 45.1142 177.746C44.8171 178.213 44.284 178.478 43.7319 178.435C43.179 178.392 42.6952 178.047 42.4747 177.539C39.9571 171.728 35.9091 167.825 31.3683 166.83C28.171 166.13 24.9738 166.943 22.5968 169.063C21.779 169.792 21.4219 170.943 21.6646 172.068C22.5071 175.977 24.7154 186.063 27.0159 195.278C28.2805 200.344 29.4011 204.465 30.3472 207.526C31.6719 211.812 32.3638 213.069 32.6098 213.42C35.9914 214.364 43.597 213.602 46.3055 213.218C46.3088 213.217 46.3121 213.217 46.3154 213.216C46.6749 213.168 82.5449 208.362 102.907 208.362C123.269 208.362 159.138 213.168 159.498 213.216C159.501 213.217 159.505 213.217 159.508 213.218C162.218 213.602 169.823 214.364 173.204 213.42C173.446 213.076 174.119 211.855 175.399 207.744C176.323 204.779 177.417 200.783 178.651 195.868C180.851 187.103 182.96 177.567 184.021 172.663C184.369 171.056 183.764 169.409 182.481 168.467C180.031 166.668 176.995 166.131 173.934 166.956C169.547 168.137 165.784 171.896 163.339 177.54C163.12 178.047 162.636 178.392 162.082 178.436C161.528 178.479 160.997 178.214 160.7 177.747C158.186 173.792 154.806 171.028 150.654 169.531C143.226 166.854 135.342 168.141 127.219 173.355C126.524 173.801 125.598 173.602 125.15 172.909C124.702 172.218 124.902 171.295 125.598 170.848C129.534 168.321 133.518 166.62 137.438 165.791C142.307 164.762 147.096 165.077 151.672 166.727C155.673 168.169 159.044 170.617 161.723 174.021C164.535 168.816 168.528 165.322 173.153 164.077C177.057 163.026 181.104 163.751 184.258 166.067C186.488 167.704 187.543 170.539 186.948 173.291C185.824 178.487 183.596 188.552 181.304 197.589C180.005 202.713 178.863 206.795 177.911 209.722C176.287 214.715 175.415 215.845 174.372 216.183C169.821 217.659 159.613 216.244 159.093 216.17C158.53 216.095 123.008 211.344 102.907 211.344C82.8032 211.344 47.2846 216.095 46.7218 216.17C46.3763 216.217 41.8108 216.85 37.4378 216.85Z" fill="#258F84"/>
<path d="M171.242 214.763H173.908C177.038 214.763 179.876 212.935 181.15 210.088C185.14 201.188 192.416 181.631 185.601 169.697C185.403 169.349 185.191 169.013 184.966 168.692C184.966 168.692 178.423 162.765 173.723 171.15C169.333 178.983 160.117 212.476 171.242 214.763Z" fill="#AFAFB2"/>
<g opacity="0.7">
<g opacity="0.7">
<g opacity="0.7">
<g opacity="0.7">
<path opacity="0.7" d="M171.316 176.733C171.434 176.545 171.551 176.368 171.666 176.203C177.445 167.819 185.49 173.746 185.49 173.746C185.766 174.067 186.028 174.402 186.27 174.751C187.077 175.899 187.723 177.118 188.227 178.394C187.901 175.259 187.087 172.296 185.601 169.698C185.403 169.349 185.191 169.014 184.966 168.693C184.966 168.693 178.424 162.766 173.723 171.151C173.01 172.42 172.173 174.359 171.316 176.733Z" fill="white"/>
</g>
</g>
</g>
</g>
<path d="M188.191 179.288C188.124 179.288 188.056 179.282 187.987 179.271L171.633 176.552C170.961 176.44 170.507 175.807 170.619 175.137C170.731 174.467 171.368 174.015 172.039 174.126L188.392 176.845C189.064 176.957 189.519 177.59 189.407 178.26C189.306 178.863 188.784 179.288 188.191 179.288Z" fill="#258F84"/>
<path d="M188.087 188.088C188.032 188.088 187.977 188.085 187.921 188.077L168.791 185.515C168.116 185.425 167.642 184.806 167.732 184.134C167.823 183.461 168.444 182.989 169.12 183.079L188.25 185.64C188.926 185.731 189.4 186.349 189.309 187.022C189.226 187.64 188.696 188.088 188.087 188.088Z" fill="#258F84"/>
<path d="M186.4 196.708C186.35 196.708 186.3 196.704 186.249 196.699L166.829 194.331C166.153 194.248 165.671 193.636 165.754 192.962C165.837 192.288 166.451 191.808 167.129 191.891L186.548 194.258C187.225 194.341 187.706 194.954 187.624 195.628C187.547 196.251 187.015 196.708 186.4 196.708Z" fill="#258F84"/>
<path d="M183.32 206.108C183.283 206.108 183.246 206.106 183.208 206.103L165.846 204.543C165.167 204.482 164.667 203.884 164.728 203.208C164.789 202.532 165.389 202.033 166.068 202.094L183.43 203.654C184.109 203.715 184.61 204.313 184.548 204.989C184.49 205.628 183.951 206.108 183.32 206.108Z" fill="#258F84"/>
<g opacity="0.35">
<g opacity="0.35">
<g opacity="0.35">
<g opacity="0.35">
<path opacity="0.35" d="M171.241 214.763H173.907C177.037 214.763 179.875 212.935 181.149 210.088C182.181 207.781 183.436 204.764 184.609 201.345C183.009 203.99 179.757 205.668 176.187 205.668H173.01C168.488 204.888 166.786 200.471 166.719 194.681C165.19 204.453 165.61 213.605 171.241 214.763Z" fill="#258F84"/>
</g>
</g>
</g>
</g>
<path d="M173.908 215.992H171.243C171.159 215.992 171.076 215.984 170.993 215.967C168.838 215.524 167.21 214.132 166.153 211.83C163.661 206.404 164.872 196.949 166.327 189.974C168.106 181.45 170.853 173.75 172.646 170.551C174.295 167.609 176.372 165.915 178.819 165.518C182.573 164.908 185.667 167.665 185.797 167.783C185.865 167.844 185.926 167.914 185.979 167.988C186.225 168.339 186.459 168.71 186.676 169.09C189.791 174.544 190.451 182.005 188.641 191.265C187.168 198.792 184.368 205.928 182.278 210.589C180.808 213.872 177.523 215.992 173.908 215.992ZM171.377 213.534H173.908C176.549 213.534 178.95 211.985 180.023 209.588C182.06 205.044 184.788 198.095 186.217 190.796C187.912 182.13 187.344 175.236 184.529 170.305C184.376 170.036 184.212 169.774 184.042 169.523C183.58 169.147 181.479 167.569 179.203 167.947C177.542 168.223 176.061 169.502 174.802 171.75C173.141 174.711 170.454 182.281 168.745 190.475C166.794 199.826 166.67 207.047 168.398 210.808C169.099 212.335 170.074 213.228 171.377 213.534Z" fill="#258F84"/>
<path d="M34.5713 214.763H31.9055C28.7757 214.763 25.938 212.935 24.6636 210.088C20.6732 201.188 13.3975 181.631 20.2124 169.697C20.4107 169.349 20.623 169.013 20.8476 168.692C20.8476 168.692 27.3902 162.765 32.0906 171.15C36.4809 178.983 45.6958 212.476 34.5713 214.763Z" fill="#AFAFB2"/>
<g opacity="0.7">
<g opacity="0.7">
<g opacity="0.7">
<g opacity="0.7">
<path opacity="0.7" d="M34.4965 176.733C34.3789 176.545 34.2612 176.368 34.1469 176.203C28.3678 167.819 20.322 173.746 20.322 173.746C20.0464 174.067 19.7839 174.402 19.542 174.751C18.7349 175.899 18.0899 177.118 17.5855 178.394C17.9113 175.259 18.725 172.296 20.2109 169.698C20.4092 169.349 20.6215 169.014 20.8461 168.693C20.8461 168.693 27.3887 162.766 32.0892 171.151C32.8017 172.42 33.6392 174.359 34.4965 176.733Z" fill="white"/>
</g>
</g>
</g>
</g>
<path d="M17.6212 179.288C17.0288 179.288 16.5064 178.862 16.4052 178.261C16.2933 177.592 16.7466 176.958 17.4196 176.846L33.7729 174.127C34.445 174.015 35.081 174.467 35.1929 175.137C35.3048 175.807 34.8515 176.44 34.1785 176.553L17.8253 179.272C17.757 179.283 17.6887 179.288 17.6212 179.288Z" fill="#258F84"/>
<path d="M17.7246 188.088C17.1158 188.088 16.5859 187.64 16.5028 187.023C16.4123 186.35 16.8862 185.731 17.5617 185.641L36.6926 183.079C37.3689 182.988 37.9893 183.461 38.0806 184.134C38.1711 184.806 37.6972 185.425 37.0217 185.515L17.8908 188.078C17.8349 188.085 17.7798 188.088 17.7246 188.088Z" fill="#258F84"/>
<path d="M19.4128 196.708C18.7982 196.708 18.2659 196.251 18.1894 195.628C18.1063 194.954 18.5876 194.341 19.2647 194.258L38.6844 191.891C39.3607 191.809 39.9761 192.287 40.0592 192.962C40.1423 193.635 39.661 194.248 38.9838 194.331L19.5642 196.699C19.5132 196.705 19.4622 196.708 19.4128 196.708Z" fill="#258F84"/>
<path d="M22.4928 206.108C21.861 206.108 21.3229 205.628 21.2653 204.989C21.2044 204.313 21.7046 203.716 22.3834 203.654L39.7453 202.094C40.4249 202.033 41.0239 202.532 41.0856 203.208C41.1465 203.884 40.6462 204.481 39.9675 204.543L22.6055 206.103C22.5677 206.106 22.5299 206.108 22.4928 206.108Z" fill="#258F84"/>
<g opacity="0.35">
<g opacity="0.35">
<g opacity="0.35">
<g opacity="0.35">
<path opacity="0.35" d="M34.5705 214.763H31.9047C28.7749 214.763 25.9372 212.935 24.6628 210.088C23.631 207.781 22.3763 204.764 21.2031 201.345C22.8033 203.99 26.0549 205.668 29.6249 205.668H32.8024C37.3243 204.888 39.0257 200.471 39.0932 194.681C40.6219 204.453 40.2015 213.605 34.5705 214.763Z" fill="#258F84"/>
</g>
</g>
</g>
</g>
<path d="M34.5707 215.992H31.9049C28.2905 215.992 25.0052 213.872 23.5358 210.589C21.4468 205.929 18.6461 198.793 17.1734 191.265C15.3625 182.006 16.0231 174.545 19.1381 169.09C19.3545 168.71 19.589 168.34 19.8342 167.989C19.8868 167.914 19.9477 167.845 20.016 167.783C20.146 167.665 23.2404 164.909 26.9938 165.518C29.4407 165.916 31.5182 167.61 33.167 170.552C34.9606 173.751 37.707 181.451 39.4858 189.975C40.9413 196.95 42.1524 206.404 39.6603 211.831C38.603 214.133 36.9748 215.524 34.82 215.968C34.7377 215.984 34.6538 215.992 34.5707 215.992ZM21.7701 169.524C21.5998 169.774 21.4369 170.036 21.2839 170.304C18.4684 175.236 17.8999 182.129 19.5956 190.796C21.0239 198.096 23.7513 205.044 25.7893 209.588C26.863 211.986 29.263 213.535 31.9041 213.535H34.4357C35.7382 213.229 36.7139 212.336 37.4149 210.808C39.1419 207.047 39.0193 199.826 37.0686 190.475C35.3589 182.281 32.6717 174.711 31.0114 171.75C29.7517 169.502 28.2708 168.223 26.6104 167.946C24.338 167.569 22.2383 169.143 21.7701 169.524Z" fill="#258F84"/>
<path d="M64.6618 213.641C64.4866 213.641 64.3089 213.6 64.1427 213.514C63.5931 213.228 63.3808 212.551 63.6688 212.004C68.356 203.084 68.4252 193.052 63.8745 182.188C60.4419 173.994 55.5267 168.387 55.4773 168.332C55.0676 167.869 55.112 167.162 55.5769 166.753C56.0418 166.345 56.751 166.389 57.1607 166.852C57.3705 167.089 62.3392 172.746 65.9198 181.264C68.0327 186.29 69.2109 191.263 69.4232 196.046C69.6897 202.061 68.4227 207.778 65.6574 213.041C65.4566 213.423 65.0658 213.641 64.6618 213.641Z" fill="#258F84"/>
<path d="M141.606 213.641C141.201 213.641 140.811 213.423 140.61 213.041C137.845 207.779 136.578 202.061 136.845 196.047C137.057 191.264 138.235 186.29 140.348 181.265C143.929 172.747 148.897 167.089 149.107 166.853C149.518 166.389 150.227 166.345 150.692 166.754C151.157 167.162 151.201 167.869 150.79 168.332C150.741 168.387 145.826 173.994 142.393 182.188C137.843 193.053 137.912 203.084 142.599 212.004C142.886 212.551 142.674 213.227 142.125 213.513C141.959 213.6 141.781 213.641 141.606 213.641Z" fill="#258F84"/>
<g opacity="0.35">
<path d="M140.104 106.226C138.809 107.702 137.447 109.103 136.028 110.419C132.661 113.542 128.971 116.2 125.023 118.306C118.355 121.869 110.957 123.867 103.167 123.904C95.5551 123.937 88.3107 122.096 81.7443 118.749C77.4445 116.554 73.4368 113.718 69.8109 110.337C68.0074 108.652 66.2969 106.837 64.6917 104.903C67.5994 104.009 70.4881 102.973 73.1332 101.948C76.4185 94.065 80.2501 85.9923 84.7186 77.9197H121.094C124.787 84.5943 128.046 91.2657 130.92 97.8362C133.66 99.4276 136.814 102.424 140.104 106.226Z" fill="#258F84"/>
</g>
<path d="M158.453 70.2338C157.82 70.3018 157.251 69.8454 157.183 69.2144L153.633 36.3092C153.565 35.6782 154.023 35.1119 154.656 35.0439C161.302 34.3326 167.268 39.1216 167.982 45.7405L169.194 56.9616C169.908 63.5805 165.099 69.5225 158.453 70.2338Z" fill="white"/>
<path d="M158.328 70.5239C158.001 70.5239 157.686 70.4141 157.428 70.2068C157.129 69.9667 156.942 69.625 156.901 69.2447L153.351 36.3395C153.31 35.9592 153.42 35.5856 153.661 35.2881C153.902 34.9906 154.245 34.8038 154.627 34.7628C161.419 34.0359 167.536 38.947 168.266 45.711L169.476 56.9321C169.83 60.2084 168.881 63.4256 166.805 65.9914C164.729 68.5572 161.773 70.1642 158.484 70.5166L158.454 70.2347L158.484 70.5166C158.432 70.5215 158.38 70.5239 158.328 70.5239ZM155.959 35.2569C155.539 35.2569 155.115 35.2791 154.688 35.325C154.457 35.3495 154.249 35.4626 154.104 35.6421C153.958 35.8224 153.891 36.0477 153.916 36.278L157.466 69.1833C157.491 69.4135 157.605 69.62 157.786 69.7651C157.967 69.9101 158.193 69.9765 158.424 69.9519C161.563 69.616 164.382 68.0827 166.363 65.6349C168.344 63.1872 169.249 60.1174 168.912 56.9911L167.701 45.77C167.05 39.7428 161.914 35.2569 155.959 35.2569Z" fill="#258F84"/>
<g opacity="0.35">
<g opacity="0.35">
<g opacity="0.35">
<g opacity="0.35">
<path opacity="0.35" d="M168.626 51.6997L169.195 56.9624C169.909 63.5788 165.1 69.5225 158.454 70.2362C157.821 70.3051 157.252 69.8445 157.184 69.2144L156.237 60.4673C156.457 60.8467 156.888 61.0794 157.353 61.0335L158.136 60.9475C163.387 60.3862 167.495 56.5551 168.626 51.6997Z" fill="#258F84"/>
</g>
</g>
</g>
</g>
<path d="M158.326 71.8179C157.704 71.8179 157.105 71.6081 156.614 71.2139C156.044 70.7575 155.688 70.1068 155.61 69.3832L152.06 36.478C151.982 35.7544 152.191 35.0431 152.65 34.476C153.108 33.9089 153.761 33.5541 154.488 33.4763C161.99 32.6732 168.75 38.0998 169.557 45.5726L170.767 56.7936C171.158 60.4133 170.11 63.9681 167.816 66.8035C165.522 69.6381 162.257 71.4139 158.622 71.8023C158.524 71.8122 158.425 71.8179 158.326 71.8179ZM158.287 68.6662H158.286C158.286 68.6662 158.286 68.6662 158.287 68.6662ZM155.255 36.5747L158.712 68.6129C161.334 68.2261 163.679 66.892 165.352 64.8245C167.116 62.6455 167.921 59.9134 167.621 57.1304L166.411 45.9094C165.806 40.3074 160.849 36.201 155.255 36.5747Z" fill="#258F84"/>
<path d="M45.6084 46.7156C46.2419 46.6476 46.8105 47.1041 46.8788 47.7351L50.429 80.6403C50.4973 81.2713 50.039 81.8376 49.4055 81.9056C42.76 82.6169 36.7942 77.8279 36.08 71.209L34.8697 59.9879C34.1539 53.369 38.963 47.4269 45.6084 46.7156Z" fill="white"/>
<path d="M48.1024 82.2588C41.8609 82.2596 36.4776 77.5575 35.7963 71.2393L34.5861 60.0182C33.8563 53.2543 38.7871 47.1606 45.5782 46.4338L45.6086 46.7157L45.5782 46.4338C46.3655 46.3494 47.0764 46.9197 47.1612 47.7048L50.7114 80.61C50.7961 81.3951 50.2235 82.1023 49.4353 82.1867C48.9885 82.235 48.5426 82.2588 48.1024 82.2588ZM45.732 46.9918C45.7008 46.9918 45.6703 46.9935 45.6382 46.9967C39.159 47.69 34.4544 53.5042 35.1513 59.9576L36.3616 71.1787C37.0576 77.632 42.8943 82.3178 49.3744 81.6245C49.8508 81.5737 50.1972 81.146 50.1461 80.6715L46.5959 47.7662C46.5482 47.3221 46.1697 46.9918 45.732 46.9918Z" fill="#258F84"/>
<g opacity="0.35">
<g opacity="0.35">
<g opacity="0.35">
<g opacity="0.35">
<path opacity="0.35" d="M49.4472 71.5114L50.4312 80.6404C50.5003 81.2714 50.0379 81.8377 49.4052 81.9057C45.9167 82.2777 42.6125 81.1362 40.159 79.0072C37.9433 77.0847 36.4212 74.3526 36.0814 71.2107L35.5713 66.4823C37.9055 70.4289 42.42 72.8685 47.2924 72.3481L48.4977 72.2186C48.9371 72.1711 49.2851 71.8884 49.4472 71.5114Z" fill="#258F84"/>
</g>
</g>
</g>
</g>
<path d="M48.1017 83.5519C41.2053 83.5527 35.2584 78.3581 34.5055 71.377L33.2952 60.1559C32.4889 52.6831 37.9373 45.9503 45.44 45.1472C46.9391 44.9866 48.2917 46.0715 48.453 47.5654L52.0032 80.4715C52.1645 81.9662 51.0751 83.3118 49.5744 83.4724C49.0799 83.5265 48.5879 83.5519 48.1017 83.5519ZM45.3512 48.3374C39.8058 49.1569 35.8384 54.218 36.4423 59.8199L37.6526 71.041C38.2573 76.6429 43.2136 80.7485 48.8076 80.3756L45.3512 48.3374Z" fill="#258F84"/>
<path d="M102.037 114.871C133.308 114.871 158.659 89.6211 158.659 58.4743C158.659 27.3274 133.308 2.07794 102.037 2.07794C70.765 2.07794 45.4143 27.3274 45.4143 58.4743C45.4143 89.6211 70.765 114.871 102.037 114.871Z" fill="white"/>
<path d="M101.982 115.155C95.0397 115.155 88.2576 113.915 81.7916 111.461C74.9157 108.852 68.6866 104.985 63.2753 99.9717C57.864 94.9574 53.5445 89.0473 50.4353 82.4054C47.2167 75.5284 45.4444 68.1646 45.1672 60.5181C44.8899 52.8715 46.1248 45.3996 48.8375 38.3095C51.4572 31.4611 55.339 25.2568 60.3726 19.8671C65.4063 14.4775 71.3417 10.1744 78.011 7.07759C84.9156 3.8718 92.3089 2.10665 99.9861 1.83048C107.663 1.55432 115.165 2.78435 122.284 5.48616C129.16 8.09538 135.389 11.9617 140.8 16.9752C146.211 21.9896 150.531 27.8997 153.64 34.5415C156.859 41.4185 158.631 48.7824 158.908 56.4289C159.185 64.0754 157.951 71.5474 155.238 78.6375C152.618 85.4859 148.736 91.6901 143.702 97.0798C138.667 102.469 132.734 106.772 126.065 109.869C119.161 113.074 111.767 114.839 104.09 115.116C103.385 115.142 102.682 115.155 101.982 115.155ZM102.064 2.35986C101.379 2.35986 100.696 2.37216 100.006 2.39674C68.9614 3.51287 44.6159 29.5763 45.7357 60.4968C46.2779 75.4751 52.6444 89.3472 63.662 99.5563C74.1695 109.293 87.7097 114.587 101.986 114.588C102.679 114.588 103.372 114.576 104.068 114.55C119.106 114.01 133.034 107.669 143.284 96.6955C153.534 85.7219 158.88 71.4294 158.338 56.451C157.244 26.2173 132.197 2.35986 102.064 2.35986Z" fill="#258F84"/>
<g opacity="0.35">
<g opacity="0.35">
<g opacity="0.35">
<g opacity="0.35">
<path opacity="0.35" d="M157.799 48.6587C158.251 51.1942 158.529 53.7919 158.625 56.4413C159.748 87.5674 135.329 113.71 104.078 114.836C72.8272 115.954 46.5795 91.6329 45.4498 60.5075C45.4169 59.6126 45.4054 58.7161 45.4161 57.8319C50.2243 85.1303 74.625 105.404 103.218 104.377C133.571 103.285 157.475 78.595 157.799 48.6587Z" fill="#258F84"/>
</g>
</g>
</g>
</g>
<path d="M101.982 116.448C94.8805 116.448 87.9438 115.18 81.3296 112.67C74.2974 110 67.9251 106.047 62.3913 100.918C56.8574 95.79 52.4391 89.7447 49.2592 82.9512C45.9665 75.9169 44.1539 68.3842 43.8709 60.564C43.5879 52.7437 44.8508 45.1005 47.626 37.8481C50.3057 30.8441 54.2755 24.4972 59.4244 18.9854C64.5732 13.4736 70.6411 9.07224 77.4626 5.90578C84.5252 2.62624 92.088 0.820937 99.9396 0.539038C107.792 0.257138 115.465 1.51503 122.747 4.27912C129.779 6.94816 136.151 10.9021 141.685 16.0304C147.219 21.1587 151.637 27.204 154.817 33.9974C158.11 41.0318 159.922 48.5644 160.205 56.3847C160.488 64.2049 159.225 71.8482 156.45 79.1005C153.77 86.1046 149.801 92.4514 144.652 97.9632C139.503 103.475 133.433 107.876 126.613 111.043C119.55 114.322 111.987 116.128 104.136 116.41C103.417 116.435 102.698 116.448 101.982 116.448ZM102.064 3.65386C101.395 3.65386 100.728 3.66616 100.054 3.68992C69.7245 4.77982 45.9401 30.2426 47.0344 60.4509C47.5643 75.0843 53.7843 88.6359 64.5477 98.6106C74.8133 108.123 88.0408 113.296 101.989 113.296C102.665 113.296 103.343 113.283 104.023 113.259C118.715 112.731 132.321 106.536 142.336 95.8154C152.35 85.095 157.573 71.1319 157.043 56.4986C155.972 26.9606 131.502 3.65386 102.064 3.65386Z" fill="#258F84"/>
<path d="M158.496 57.895C159.063 68.9161 155.996 79.3325 150.289 88.1115C146.01 94.6936 127.648 106.768 104.28 108.169C82.6125 109.469 62.2977 98.963 57.3661 92.8514C50.7873 84.6984 46.6694 74.6492 46.1025 63.628C44.6026 34.4621 69.1398 21.0874 100.178 19.5042C131.215 17.921 156.996 28.729 158.496 57.895Z" fill="#54B1A7"/>
<path d="M100.519 109.365C89.7447 109.365 80.3742 106.69 74.1542 104.3C66.2779 101.275 59.3543 97.0471 56.5166 93.5299C49.5519 84.8991 45.5747 74.5778 45.0144 63.6829C44.6425 56.4535 45.8396 49.8936 48.5704 44.1851C51.1415 38.8126 55.085 34.158 60.2931 30.3491C69.8075 23.3901 83.5797 19.2657 100.121 18.4224C116.662 17.5792 130.785 20.2802 140.963 26.2345C146.534 29.4936 150.935 33.7229 154.044 38.8061C157.346 44.2064 159.21 50.6106 159.581 57.84C160.141 68.735 157.242 79.4062 151.2 88.7007C148.69 92.5621 142.454 97.2953 134.928 101.052C128.317 104.352 117.645 108.453 104.344 109.251C103.052 109.328 101.775 109.365 100.519 109.365ZM105.961 20.4375C104.088 20.4375 102.179 20.4867 100.232 20.5859C84.117 21.4078 70.752 25.388 61.5807 32.0954C51.3414 39.5846 46.4987 50.1755 47.1873 63.5723C47.7238 74.0091 51.5364 83.8994 58.2123 92.1728C60.1985 94.6345 65.7702 98.7581 74.9374 102.279C81.6816 104.87 92.2343 107.807 104.214 107.088C117.147 106.312 127.526 102.324 133.955 99.1146C142.57 94.814 147.647 90.1823 149.376 87.5231C155.168 78.6138 157.947 68.3875 157.41 57.9507C156.722 44.5539 150.817 34.5112 139.863 28.1029C131.237 23.0566 119.599 20.4375 105.961 20.4375Z" fill="#258F84"/>
<g opacity="0.5">
<g opacity="0.5">
<g opacity="0.5">
<g opacity="0.5">
<path d="M147.223 55.7869C147.929 50.3201 145.278 45.4749 141.301 44.9648C137.324 44.4548 133.527 48.4731 132.82 53.9399C132.113 59.4067 134.765 64.2519 138.742 64.762C142.719 65.272 146.516 61.2537 147.223 55.7869Z" fill="white"/>
</g>
</g>
</g>
</g>
<g opacity="0.5">
<g opacity="0.5">
<g opacity="0.5">
<g opacity="0.5">
<path d="M135.968 76.107C136.638 73.6666 135.476 71.2243 133.374 70.6521C131.271 70.0798 129.024 71.5942 128.354 74.0345C127.684 76.4749 128.846 78.9172 130.949 79.4895C133.051 80.0617 135.299 78.5474 135.968 76.107Z" fill="white"/>
</g>
</g>
</g>
</g>
<g opacity="0.35">
<path d="M146.167 31.2432C153.373 37.4221 157.891 46.1798 158.495 57.8934C159.062 68.917 155.994 79.3325 150.29 88.1116C146.01 94.6936 127.646 106.767 104.278 108.172C96.0276 108.669 87.9753 107.451 80.8896 105.413C109.577 103.078 131.939 88.2673 137.246 80.1037C144.491 68.9612 148.382 55.7398 147.66 41.7546C147.471 38.0162 146.958 34.5162 146.167 31.2432Z" fill="#258F84"/>
</g>
<path d="M49.055 40.0582C48.7357 40.0582 48.4149 39.9591 48.1401 39.7534C47.4934 39.2683 47.3444 38.3693 47.7846 37.7063C50.1344 33.8614 53.135 30.3475 56.7025 27.2629C60.1762 24.2604 64.216 21.6389 68.7091 19.4714C73.1084 17.3498 77.9709 15.6502 83.1609 14.4193C88.304 13.1999 93.7943 12.4345 99.4812 12.1444C105.074 11.8593 110.555 12.0518 115.77 12.7156C121.033 13.386 126.037 14.539 130.642 16.141C135.354 17.7808 139.666 19.8983 143.457 22.4346C147.354 25.0422 150.725 28.1086 153.478 31.5496C153.959 32.0798 154.008 32.8919 153.558 33.482C153.05 34.149 152.094 34.2785 151.425 33.772L151.265 33.654L151.145 33.5016C140.952 20.7047 122.177 14.0243 99.6367 15.174C76.9713 16.3303 59.012 25.1315 50.3632 39.3207L50.3237 39.3855L50.2718 39.4535C49.974 39.8493 49.5174 40.0582 49.055 40.0582Z" fill="#258F84"/>
<g opacity="0.5">
<g opacity="0.5">
<g opacity="0.5">
<g opacity="0.5">
<path d="M59.6146 80.3348C59.6146 80.3348 49.066 52.0251 64.0452 39.765C79.0244 27.5048 101.426 26.4092 100.976 27.8662C100.976 27.8662 76.4862 35.1104 67.7871 55.1301C61.0791 70.5682 59.6146 80.3348 59.6146 80.3348Z" fill="white"/>
</g>
</g>
</g>
</g>
<path d="M153.353 218.008H52.93C49.6785 218.008 47.0423 215.383 47.0423 212.144C47.0423 210.278 48.5611 208.765 50.4346 208.765H155.848C157.722 208.765 159.241 210.278 159.241 212.144C159.241 215.383 156.605 218.008 153.353 218.008Z" fill="#E6E9FA"/>
<g opacity="0.3">
<g opacity="0.3">
<g opacity="0.3">
<g opacity="0.3">
<path opacity="0.3" d="M159.239 212.145C159.239 212.786 159.135 213.401 158.944 213.979C158.416 212.797 157.23 211.978 155.849 211.978H50.4354C49.4999 211.978 48.6508 212.354 48.037 212.969C47.745 213.26 47.5055 213.599 47.3377 213.98C47.1468 213.402 47.0423 212.787 47.0423 212.146C47.0423 211.214 47.42 210.368 48.0379 209.757C48.6517 209.142 49.5007 208.765 50.4362 208.765H155.849C157.724 208.764 159.239 210.277 159.239 212.145Z" fill="white"/>
</g>
</g>
</g>
</g>
<g opacity="0.35">
<g opacity="0.35">
<g opacity="0.35">
<g opacity="0.35">
<path opacity="0.35" d="M159.239 212.145C159.239 213.762 158.581 215.231 157.514 216.289C156.451 217.351 154.976 218.007 153.353 218.007H52.9317C49.6801 218.007 47.0415 215.383 47.0415 212.145C47.0415 211.522 47.2102 210.937 47.5088 210.434C48.3991 212.532 50.4946 214.008 52.9308 214.008H153.352C154.976 214.008 156.451 213.353 157.513 212.29C158.044 211.761 158.475 211.131 158.77 210.434C159.071 210.937 159.239 211.522 159.239 212.145Z" fill="#258F84"/>
</g>
</g>
</g>
</g>
<path d="M153.354 219.5H52.9306C48.8588 219.5 45.5464 216.2 45.5464 212.145C45.5464 209.46 47.7398 207.276 50.4352 207.276H155.849C158.544 207.276 160.738 209.46 160.738 212.145C160.738 216.2 157.425 219.5 153.354 219.5ZM50.4344 210.257C49.3895 210.257 48.5387 211.103 48.5387 212.145C48.5387 214.557 50.5084 216.518 52.9298 216.518H153.354C155.775 216.518 157.745 214.557 157.745 212.145C157.745 211.104 156.895 210.257 155.849 210.257H50.4344Z" fill="#258F84"/>
<path d="M165.103 142.744L155.281 208.764H51.0047L50.6493 206.375L41.1776 142.744C40.8675 140.654 42.4949 138.779 44.6127 138.779H161.667C163.79 138.779 165.413 140.654 165.103 142.744Z" fill="#FF66AC"/>
<path d="M165.103 142.744L155.281 208.764H51.0047L50.6493 206.375L41.1776 142.744C40.8675 140.654 42.4949 138.779 44.6127 138.779H161.667C163.79 138.779 165.413 140.654 165.103 142.744Z" fill="#E6E9FA"/>
<g opacity="0.5">
<g opacity="0.5">
<g opacity="0.5">
<g opacity="0.5">
<path opacity="0.5" d="M44.8805 146.843C44.5703 144.752 46.1977 142.877 48.3155 142.877H165.083L165.103 142.745C165.413 140.655 163.79 138.78 161.668 138.78H44.6139C42.4961 138.78 40.8687 140.655 41.1789 142.745L50.6497 206.376L51.0051 208.765H54.0979L44.8805 146.843Z" fill="white"/>
</g>
</g>
</g>
</g>
<g opacity="0.35">
<g opacity="0.35">
<g opacity="0.35">
<g opacity="0.35">
<path opacity="0.35" d="M158.377 138.779H150.157C153.274 150.152 151.554 175.832 131.448 189.254C106.207 206.102 60.7182 205.995 51.0607 206.375L51.4161 208.764H151.99L161.812 142.744C162.122 140.654 160.499 138.779 158.377 138.779Z" fill="#258F84"/>
</g>
</g>
</g>
</g>
<path d="M156.57 210.257H49.7134L39.6996 142.962C39.4873 141.537 39.9077 140.095 40.8523 139.004C41.7968 137.913 43.1683 137.288 44.6139 137.288H161.67C163.116 137.288 164.487 137.913 165.432 139.004C166.376 140.095 166.796 141.537 166.584 142.962L156.57 210.257ZM52.296 207.275H153.988L163.623 142.525C163.709 141.95 163.546 141.391 163.165 140.951C162.784 140.511 162.253 140.269 161.67 140.269H44.6139C44.0306 140.269 43.4999 140.512 43.119 140.951C42.738 141.391 42.5751 141.95 42.6607 142.525L52.296 207.275Z" fill="#258F84"/>
<g opacity="0.3">
<g opacity="0.3">
<g opacity="0.3">
<g opacity="0.3">
<path opacity="0.3" d="M59.3052 193.34C55.3493 184.655 52.4688 169.83 53.118 161.105C53.7671 152.38 58.8477 155.05 60.4225 166.226C64.6128 195.969 61.0708 197.217 59.3052 193.34Z" fill="white"/>
</g>
</g>
</g>
</g>
<path d="M116.765 166.281C116.893 165.167 117.041 164.04 116.821 162.907C116.723 162.784 116.634 162.658 116.536 162.535C116.212 162.418 115.896 162.267 115.559 162.182C113.186 161.572 110.78 161.33 108.337 161.54C105.15 161.813 102.225 162.793 99.7102 164.81C98.7994 165.538 97.9693 166.36 97.1193 167.157C96.8914 167.374 96.7162 167.464 96.3961 167.318C95.6433 166.977 94.8321 166.825 94.0085 166.784C91.7994 166.684 89.828 167.395 87.9891 168.545C85.9964 169.795 84.3904 171.466 82.8946 173.255C82.2578 174.013 82.5054 174.858 83.4533 175.177C84.0514 175.371 84.6495 175.562 85.2477 175.757C86.681 176.219 88.1109 176.677 89.5401 177.139C89.5368 177.183 89.5409 177.206 89.5343 177.228C89.5228 177.256 89.5104 177.288 89.4907 177.315C88.8942 178.078 89.039 178.785 89.6676 179.449C89.7351 179.522 89.7935 179.61 89.8527 179.69C90.1818 180.121 90.5183 180.557 90.8672 181.006C90.3908 181.372 89.9226 181.683 89.5088 182.059C89.2998 182.249 89.1155 182.524 89.0365 182.797C88.9024 183.237 89.1311 183.687 89.5244 183.918C89.9416 184.168 90.371 184.157 90.7594 183.879C91.2522 183.53 91.7228 183.151 92.2239 182.77C92.697 183.391 93.1454 183.979 93.5955 184.559C94.1113 185.22 94.4668 185.333 95.2665 185.113C95.4121 185.068 95.5561 185.037 95.7281 184.995C95.7396 185.165 95.7527 185.302 95.7601 185.43C95.8622 187.489 95.956 189.55 96.0695 191.603C96.1213 192.577 96.8931 193.036 97.7759 192.619C98.5732 192.245 99.3696 191.848 100.151 191.426C101.952 190.45 103.591 189.255 104.899 187.666C106.535 185.667 107.441 183.434 107.017 180.795C106.999 180.691 107.086 180.513 107.177 180.46C107.98 179.944 108.804 179.462 109.608 178.942C111.425 177.763 112.885 176.231 114.027 174.4C115.579 171.911 116.435 169.181 116.765 166.281ZM90.7224 175.189C89.0678 174.652 87.3523 174.095 85.59 173.524C87.4107 171.596 89.3377 169.913 91.9326 169.203C93.0541 168.895 94.3499 168.922 95.1151 169.231C93.6621 171.206 92.2058 173.181 90.7224 175.189ZM104.639 183.66C104.219 184.996 103.416 186.085 102.427 187.055C101.198 188.247 99.767 189.137 98.2202 189.949C98.1272 188.056 98.0318 186.204 97.938 184.39C100.277 183.484 102.564 182.6 104.863 181.71C104.952 182.341 104.843 183.009 104.639 183.66ZM113.277 170.986C112.524 172.755 111.537 174.366 110.128 175.7C109.041 176.724 107.809 177.545 106.51 178.275C102.991 180.254 99.2182 181.619 95.3611 182.772C95.1727 182.827 95.0575 182.817 94.9333 182.645C94.6642 182.264 94.3623 181.896 94.0776 181.52C94.0587 181.499 94.0521 181.464 94.0249 181.397C94.1237 181.318 94.229 181.24 94.3351 181.159C96.536 179.476 98.7476 177.798 100.949 176.112C101.585 175.631 101.613 174.804 101.024 174.327C100.613 173.992 100.071 173.997 99.5959 174.352C98.2712 175.359 96.9499 176.365 95.6285 177.375C94.6428 178.126 93.6654 178.873 92.6419 179.655C92.2905 179.198 91.9516 178.781 91.6455 178.341C91.5937 178.263 91.6463 178.065 91.7171 177.967C92.8903 176.223 94.0537 174.47 95.2747 172.757C96.4825 171.056 97.8557 169.484 99.3663 168.041C100.782 166.679 102.318 165.476 104.173 164.759C105.363 164.297 106.59 163.983 107.858 163.848C107.973 163.832 108.14 163.947 108.222 164.052C109.511 165.713 110.785 167.375 112.062 169.041C112.446 169.537 112.824 170.043 113.219 170.533C113.338 170.68 113.352 170.806 113.277 170.986ZM114.041 168.663C112.767 167.002 111.523 165.385 110.278 163.761C110.279 163.724 110.29 163.68 110.296 163.64C111.746 163.813 113.2 163.99 114.669 164.165C114.642 165.741 114.408 167.184 114.041 168.663Z" fill="#258F84"/>
<path d="M113.221 170.532C112.825 170.042 112.448 169.536 112.064 169.04C110.787 167.374 109.513 165.712 108.224 164.051C108.142 163.946 107.975 163.831 107.86 163.847C106.592 163.983 105.365 164.296 104.175 164.758C102.319 165.475 100.784 166.678 99.3683 168.041C97.8577 169.483 96.4845 171.055 95.2767 172.756C94.0557 174.47 92.8923 176.223 91.7191 177.966C91.6483 178.064 91.5957 178.262 91.6475 178.341C91.9528 178.78 92.2917 179.197 92.6439 179.654C93.6674 178.872 94.6448 178.124 95.6305 177.374C96.9519 176.364 98.2732 175.357 99.5979 174.351C100.073 173.996 100.614 173.992 101.026 174.326C101.615 174.804 101.588 175.631 100.951 176.111C98.7496 177.797 96.538 179.475 94.3371 181.158C94.231 181.239 94.1249 181.317 94.0269 181.396C94.0541 181.464 94.0607 181.498 94.0796 181.519C94.3643 181.896 94.6662 182.263 94.9353 182.644C95.0595 182.816 95.1747 182.826 95.3631 182.772C99.2202 181.618 102.993 180.253 106.512 178.274C107.81 177.545 109.043 176.723 110.13 175.699C111.538 174.365 112.526 172.754 113.279 170.985C113.353 170.806 113.338 170.68 113.221 170.532ZM109.358 173.069C107.676 174.332 105.295 174.023 104.031 172.37C102.759 170.72 103.08 168.35 104.747 167.07C106.383 165.814 108.765 166.139 110.041 167.79C111.302 169.431 110.995 171.836 109.358 173.069Z" fill="white"/>
<path d="M114.041 168.663C112.766 167.003 111.522 165.385 110.277 163.761C110.282 163.722 110.29 163.682 110.296 163.64C111.746 163.815 113.201 163.991 114.671 164.166C114.643 165.74 114.407 167.184 114.041 168.663Z" fill="#DB2C2C"/>
<path d="M95.1156 169.232C93.6609 171.205 92.2046 173.181 90.7228 175.191C89.0658 174.65 87.3503 174.095 85.5888 173.525C87.4112 171.595 89.3373 169.912 91.9323 169.203C93.0537 168.895 94.3479 168.922 95.1156 169.232Z" fill="#DB2C2C"/>
<path d="M102.425 187.055C101.197 188.248 99.7675 189.139 98.219 189.949C98.1252 188.057 98.0306 186.205 97.9376 184.39C100.277 183.484 102.563 182.601 104.865 181.709C104.953 182.341 104.842 183.008 104.641 183.661C104.22 184.998 103.417 186.086 102.425 187.055Z" fill="#DB2C2C"/>
<path d="M110.04 167.79C108.765 166.139 106.382 165.815 104.746 167.07C103.079 168.35 102.758 170.72 104.03 172.37C105.294 174.023 107.675 174.332 109.357 173.069C110.994 171.836 111.302 169.431 110.04 167.79ZM108.223 171.675C107.371 172.318 106.119 172.149 105.455 171.301C104.768 170.426 104.955 169.141 105.865 168.469C106.716 167.833 107.992 168.018 108.633 168.87C109.303 169.757 109.119 171.001 108.223 171.675Z" fill="#258F84"/>
<path d="M108.222 171.675C107.37 172.318 106.118 172.149 105.452 171.299C104.768 170.426 104.954 169.141 105.863 168.469C106.716 167.835 107.99 168.017 108.631 168.868C109.301 169.756 109.119 171.002 108.222 171.675Z" fill="#22A7F0"/>
<path d="M164.585 146.228C164.585 146.228 156.504 142.408 148.915 145.835C141.648 149.116 136.506 172.476 145.922 178.393C151.733 182.046 155.689 178.819 158.977 179.767C163.853 181.171 173.858 157.119 164.585 146.228Z" fill="white"/>
<g opacity="0.35">
<path d="M168.232 161.43C167.274 171.221 162.084 180.662 158.978 179.767C155.689 178.82 151.734 182.047 145.923 178.395C141.424 175.566 140.25 168.761 141.043 162.059C141.578 165.969 143.093 169.319 145.923 171.097C151.734 174.746 155.603 173.05 158.978 172.469C163.15 171.75 166.552 167.211 168.232 161.43Z" fill="#258F84"/>
</g>
<path d="M151.881 181.67C149.92 181.67 147.651 181.243 145.123 179.654C142.859 178.232 141.224 175.93 140.264 172.812C139.458 170.197 139.157 167.009 139.392 163.594C139.671 159.55 140.67 155.401 142.203 151.912C143.374 149.246 145.383 145.792 148.296 144.477C156.424 140.807 164.87 144.713 165.226 144.881L165.517 145.018L165.725 145.263C169.969 150.247 170.214 157.133 169.672 162.031C169.062 167.551 167.106 173.405 164.568 177.311C162.025 181.222 159.897 181.584 158.559 181.199C157.691 180.949 156.594 181.124 155.324 181.326C154.32 181.487 153.167 181.67 151.881 181.67ZM155.832 145.894C153.557 145.894 151.449 146.328 149.533 147.193C147.958 147.905 146.285 150.061 144.946 153.108C143.568 156.245 142.632 160.142 142.379 163.8C141.934 170.259 143.516 175.119 146.72 177.134C149.951 179.164 152.443 178.767 154.853 178.382C156.41 178.134 157.881 177.9 159.393 178.335C159.566 178.365 160.812 177.887 162.568 174.855C166.665 167.787 169.263 154.439 163.659 147.451C163.023 147.188 161.389 146.57 159.249 146.199C158.074 145.996 156.933 145.894 155.832 145.894Z" fill="#258F84"/>
</svg>
