<svg width="24" height="24" viewBox="0 0 24 24" fill="none" xmlns="http://www.w3.org/2000/svg">
<path d="M6.42901 2.41301C6.55508 2.26254 6.61714 2.06863 6.60184 1.87292C6.58655 1.67721 6.49514 1.49529 6.34722 1.36622C6.19931 1.23716 6.00668 1.17123 5.8107 1.18259C5.61472 1.19396 5.43101 1.28171 5.29901 1.42701L4.00701 2.90701C3.27439 3.74658 2.86024 4.81698 2.83701 5.93101L2.78001 8.65001C2.7759 8.84892 2.85097 9.04132 2.98872 9.18488C3.12646 9.32844 3.31559 9.4114 3.51451 9.41551C3.71342 9.41962 3.90582 9.34455 4.04938 9.2068C4.19294 9.06905 4.2759 8.87992 4.28001 8.68101L4.33601 5.96301C4.35205 5.20074 4.63558 4.46837 5.13701 3.89401L6.42901 2.41301Z" fill="#007479"/>
<path fill-rule="evenodd" clip-rule="evenodd" d="M6.23701 7.7C6.30417 6.63014 6.77653 5.62608 7.55793 4.89224C8.33934 4.15839 9.37104 3.74993 10.443 3.75H11V3C11 2.73478 11.1054 2.48043 11.2929 2.29289C11.4804 2.10536 11.7348 2 12 2C12.2652 2 12.5196 2.10536 12.7071 2.29289C12.8947 2.48043 13 2.73478 13 3V3.75H13.557C14.629 3.74993 15.6607 4.15839 16.4421 4.89224C17.2235 5.62608 17.6959 6.63014 17.763 7.7L17.984 11.234C18.0682 12.5815 18.5207 13.88 19.292 14.988C19.4514 15.2171 19.5488 15.4835 19.5747 15.7613C19.6006 16.0392 19.5542 16.319 19.4399 16.5736C19.3256 16.8281 19.1474 17.0488 18.9226 17.2142C18.6978 17.3795 18.4341 17.4838 18.157 17.517L14.75 17.925V19C14.75 19.7293 14.4603 20.4288 13.9446 20.9445C13.4288 21.4603 12.7294 21.75 12 21.75C11.2707 21.75 10.5712 21.4603 10.0555 20.9445C9.53974 20.4288 9.25001 19.7293 9.25001 19V17.925L5.84301 17.516C5.56611 17.4827 5.30252 17.3784 5.07786 17.2131C4.85319 17.0478 4.6751 16.8273 4.56086 16.5729C4.44663 16.3184 4.40015 16.0388 4.42593 15.7611C4.45172 15.4834 4.54889 15.2171 4.70801 14.988C5.47931 13.8799 5.93174 12.5814 6.01601 11.234L6.23701 7.701V7.7ZM10.75 19C10.75 19.3315 10.8817 19.6495 11.1161 19.8839C11.3505 20.1183 11.6685 20.25 12 20.25C12.3315 20.25 12.6495 20.1183 12.8839 19.8839C13.1183 19.6495 13.25 19.3315 13.25 19V18.25H10.75V19Z" fill="#007479"/>
<path d="M17.643 1.35499C17.4932 1.48576 17.4014 1.67068 17.3879 1.86908C17.3744 2.06748 17.4403 2.26312 17.571 2.41299L18.863 3.89299C19.3643 4.46775 19.6475 5.20049 19.663 5.96299L19.72 8.67999C19.722 8.77848 19.7434 8.8756 19.783 8.96582C19.8226 9.05603 19.8795 9.13757 19.9506 9.20578C20.0217 9.27398 20.1055 9.32752 20.1973 9.36333C20.2891 9.39914 20.387 9.41652 20.4855 9.41449C20.584 9.41245 20.6811 9.39104 20.7713 9.35146C20.8615 9.31189 20.9431 9.25494 21.0113 9.18386C21.0795 9.11277 21.133 9.02895 21.1688 8.93718C21.2046 8.84541 21.222 8.74748 21.22 8.64899L21.163 5.93099C21.1398 4.81696 20.7256 3.74655 19.993 2.90699L18.701 1.42699C18.5702 1.27717 18.3853 1.18543 18.1869 1.17193C17.9885 1.15843 17.7929 1.22427 17.643 1.35499Z" fill="#007479"/>
</svg>
