<svg width="26" height="30" viewBox="0 0 26 30" fill="none" xmlns="http://www.w3.org/2000/svg">
<path fill-rule="evenodd" clip-rule="evenodd" d="M17.2648 20.7528V15.7528C17.2043 12.4375 14.4996 9.78149 11.1837 9.78149C7.8678 9.78143 5.16309 12.4375 5.10266 15.7528L5.10278 20.7528C5.10388 21.4559 4.91675 22.1465 4.56079 22.7529L17.8077 22.7528C17.4514 22.1465 17.264 21.4559 17.2648 20.7528ZM21.3187 24.7528H1.04871C0.691406 24.7528 0.361328 24.5622 0.182739 24.2528C0.00402832 23.9434 0.00402832 23.5622 0.182739 23.2528C0.361328 22.9434 0.691406 22.7528 1.04871 22.7528C2.16052 22.76 3.06787 21.8647 3.07556 20.7528L3.07568 15.7528C3.14624 11.3253 6.75562 7.77295 11.1837 7.77295C15.6118 7.77295 19.2212 11.3253 19.2916 15.7528V20.7528C19.295 21.2869 19.5105 21.7977 19.8907 22.1728C20.2709 22.5479 20.7845 22.7565 21.3186 22.7528C21.6759 22.7528 22.0061 22.9434 22.1847 23.2527C22.3634 23.5621 22.3634 23.9434 22.1848 24.2527C22.0062 24.5622 21.676 24.7528 21.3187 24.7528ZM13.8137 28.2528C13.2614 29.1792 12.2623 29.7467 11.1837 29.7467C10.1051 29.7467 9.10608 29.1792 8.55371 28.2528C8.37402 27.9417 8.37512 27.5582 8.5564 27.248C8.73767 26.9379 9.07141 26.7488 9.43066 26.7528H12.9376C13.2966 26.7491 13.63 26.9384 13.8112 27.2484C13.9922 27.5585 13.9932 27.9418 13.8136 28.2528H13.8137Z" fill="#809FB8"/>
<circle cx="18.9647" cy="7.75293" r="4" fill="#FF7200"/>
<circle cx="18.9647" cy="7.75293" r="5.5" stroke="white" stroke-width="3" stroke-linejoin="round"/>
</svg>
