<svg width="48" height="48" viewBox="0 0 48 48" fill="none" xmlns="http://www.w3.org/2000/svg">
<rect width="48" height="48" rx="8" fill="#191919"/>
<path d="M29 19H17V15H29V19ZM29 24.5C29.2833 24.5 29.521 24.404 29.713 24.212C29.905 24.02 30.0007 23.7827 30 23.5C30 23.2167 29.904 22.9793 29.712 22.788C29.52 22.5967 29.2827 22.5007 29 22.5C28.7167 22.5 28.4793 22.596 28.288 22.788C28.0967 22.98 28.0007 23.2173 28 23.5C28 23.7833 28.096 24.021 28.288 24.213C28.48 24.405 28.7173 24.5007 29 24.5ZM27 31V27H19V31H27ZM29 33H17V29H13V23C13 22.15 13.2917 21.4377 13.875 20.863C14.4583 20.2883 15.1667 20.0007 16 20H30C30.85 20 31.5627 20.2877 32.138 20.863C32.7133 21.4383 33.0007 22.1507 33 23V29H29V33Z" fill="white"/>
</svg>
