<svg width="24" height="26" viewBox="0 0 24 26" fill="none" xmlns="http://www.w3.org/2000/svg">
<path fill-rule="evenodd" clip-rule="evenodd" d="M10.7985 25.4861C9.03913 25.4768 7.61908 24.0455 7.62348 22.2861C7.62104 22.0568 7.55903 21.8322 7.44343 21.6341L7.43647 21.6221C7.25715 21.303 6.95685 21.0695 6.60346 20.9741C6.25202 20.8793 5.87726 20.9297 5.56342 21.114L5.55048 21.1221C4.81537 21.54 3.94294 21.6438 3.13032 21.4101C2.32111 21.1756 1.63776 20.6297 1.23041 19.8921L0.47846 18.5811C-0.394587 17.0535 0.120184 15.108 1.63447 14.2121C2.0644 13.9591 2.32831 13.4975 2.32831 12.9986C2.32831 12.4997 2.0644 12.0381 1.63447 11.7851C0.120916 10.8846 -0.392756 8.93799 0.479437 7.40802L0.490423 7.39008L1.28339 6.07208C1.84626 5.08813 2.89179 4.47992 4.02534 4.47711H4.03132C4.58417 4.47778 5.12714 4.62439 5.60529 4.9021L5.61725 4.90912C5.81171 5.02582 6.03364 5.08862 6.26032 5.09113C7.01545 5.08411 7.62726 4.4762 7.63923 3.72113V3.71216C7.63849 2.86816 7.96967 2.05786 8.56135 1.45605C9.15253 0.854126 9.96064 0.514771 10.8043 0.51416H12.2993C13.1591 0.515015 13.9814 0.866394 14.5764 1.48718C15.1544 2.08844 15.4769 2.89026 15.4763 3.72424V3.78217C15.478 4.01093 15.5401 4.23511 15.6563 4.43219C15.84 4.74982 16.1426 4.98114 16.4973 5.07519C16.8511 5.16705 17.2269 5.11377 17.5412 4.92725L17.5502 4.92218C18.0291 4.64398 18.5732 4.49738 19.1271 4.49719H19.1273C20.2661 4.49976 21.3159 5.11328 21.8773 6.10413L22.6192 7.40417C22.6379 7.4364 22.6546 7.46979 22.6693 7.50415C23.4648 9.02081 22.9383 10.8947 21.4693 11.7751H21.4623C21.2545 11.8947 21.0819 12.0672 20.9623 12.2751V12.2811C20.582 12.9447 20.8046 13.7907 21.4623 14.1812C22.1948 14.6082 22.7272 15.309 22.9423 16.1291C23.1584 16.9514 23.0423 17.8257 22.6193 18.5632L22.6133 18.5732L21.8273 19.8972C21.267 20.8848 20.221 21.4971 19.0855 21.502L19.0805 21.5021C18.5253 21.5013 17.9802 21.3533 17.5007 21.0731L17.5006 21.0731C17.299 20.9572 17.0726 20.892 16.8404 20.883C16.4753 20.8837 16.1257 21.0306 15.8697 21.2911C15.614 21.552 15.4704 21.9026 15.4696 22.2681V22.2891C15.4706 24.0458 14.0522 25.4731 12.2956 25.483L10.7985 25.4861ZM7.06647 19.2281C8.43427 19.611 9.38788 20.8469 9.41144 22.2671V22.2761C9.41144 23.0443 10.0305 23.6689 10.7985 23.6761H12.2934C13.0606 23.6728 13.6805 23.0493 13.6794 22.2821V22.2751C13.6785 21.4286 14.0117 20.6161 14.6065 20.014C15.1967 19.4151 16.0024 19.0776 16.8433 19.0771H16.8785C17.4097 19.0925 17.9289 19.2392 18.3895 19.5041C18.5982 19.627 18.8361 19.6917 19.0784 19.6911C19.575 19.6901 20.033 19.4229 20.2784 18.991L20.2834 18.9801L21.0634 17.6671C21.1855 17.454 21.2496 17.2127 21.2495 16.9672C21.2493 16.8463 21.2338 16.726 21.2033 16.6091C21.1099 16.2524 20.8781 15.9476 20.5595 15.7621C19.5767 15.1847 18.9732 14.13 18.9733 12.9902C18.9731 12.4261 19.1207 11.872 19.4013 11.383C19.6772 10.8976 20.0767 10.494 20.5593 10.2132C21.212 9.81897 21.4334 8.9776 21.0593 8.31317C21.0438 8.28552 21.0297 8.25714 21.0173 8.22809L20.3173 7.00415C20.072 6.57245 19.6141 6.30536 19.1174 6.3042C18.8768 6.3045 18.6404 6.36829 18.4323 6.48914C17.9479 6.776 17.3953 6.92725 16.8325 6.92712H16.8323C16.5653 6.92786 16.299 6.89423 16.0403 6.82715C15.2243 6.61176 14.5278 6.07977 14.1053 5.34912C13.8286 4.87683 13.68 4.34045 13.6743 3.79309V3.71808C13.6741 3.35425 13.5338 3.00439 13.2825 2.74121C13.0208 2.46942 12.6597 2.31598 12.2823 2.3161H10.7873C10.4202 2.31616 10.0685 2.46387 9.81147 2.72607C9.55475 2.98804 9.41108 3.34027 9.41132 3.70709V3.7301C9.39606 5.47491 7.98212 6.88391 6.23737 6.89319L6.22736 6.89313C5.68915 6.88708 5.16193 6.73871 4.69953 6.46307C4.38105 6.27893 4.0019 6.22998 3.64704 6.32715C3.29206 6.42426 2.99079 6.65942 2.81037 6.98016L2.79938 6.99915L2.00934 8.31213C1.63666 8.97858 1.86188 9.82062 2.5174 10.2122C3.50068 10.7925 4.10407 11.8494 4.10407 12.9911C4.10407 14.1329 3.50068 15.1898 2.5174 15.7701C1.85969 16.1606 1.63703 17.0066 2.0174 17.6702L2.76935 18.9822L2.77839 18.9972C2.95588 19.3222 3.25568 19.563 3.61139 19.6662C3.96369 19.7673 4.34174 19.7233 4.66144 19.5443C5.38556 19.1189 6.25056 19.0028 7.06135 19.2222L7.06647 19.2281ZM7.51447 13.0001C7.53876 10.7762 9.357 8.99084 11.5809 9.00714C13.8048 9.02338 15.5966 10.8352 15.5883 13.0591C15.58 15.2831 13.7746 17.0814 11.5506 17.081C9.31 17.0684 7.50348 15.2426 7.51447 13.0021V13.0001ZM9.30243 13.0001C9.31574 14.239 10.3286 15.2339 11.5676 15.225C12.8067 15.216 13.805 14.2065 13.8004 12.9675C13.7956 11.7284 12.7896 10.7266 11.5505 10.727C10.3023 10.7363 9.29682 11.7538 9.30243 13.002V13.0001Z" fill="#809FB8"/>
</svg>
