<svg width="9" height="9" viewBox="0 0 9 9" fill="none" xmlns="http://www.w3.org/2000/svg">
<path fill-rule="evenodd" clip-rule="evenodd" d="M1.05565 8.05057C0.755483 7.7453 0.755483 7.25578 1.05565 6.95053L5.90908 2.05526H3.14331C2.86538 2.05528 2.60852 1.90698 2.46955 1.66629C2.33059 1.42558 2.33059 1.12903 2.46955 0.888317C2.60852 0.64763 2.86538 0.499329 3.14331 0.499329H7.77101C7.85123 0.499302 7.93093 0.511938 8.00722 0.536783L8.01244 0.53681H8.02201C8.13326 0.575115 8.23413 0.638665 8.31665 0.722486C8.35575 0.761935 8.39055 0.805481 8.42039 0.852353L8.42736 0.863685L8.43258 0.87241V0.876772C8.50238 0.995999 8.53909 1.13172 8.53893 1.26988V5.93767C8.53893 6.21328 8.39188 6.46794 8.15321 6.60576C7.91455 6.74355 7.62044 6.74355 7.38178 6.60576C7.14311 6.46794 6.99606 6.21328 6.99606 5.93767V3.14833L2.14263 8.0436C1.99855 8.18919 1.80224 8.27112 1.59741 8.27112C1.39258 8.27112 1.19626 8.18919 1.05219 8.0436L1.05565 8.05057Z" fill="#1AD598"/>
</svg>
