<svg width="25" height="23" viewBox="0 0 25 23" fill="none" xmlns="http://www.w3.org/2000/svg">
<path fill-rule="evenodd" clip-rule="evenodd" d="M6.78857 22.3166C2.93054 22.3166 0.0206299 19.1827 0.0206299 15.0286V7.46863C0.0206299 3.3136 2.93066 0.181641 6.78857 0.181641H17.6276C19.5144 0.2052 21.3081 1.00494 22.5865 2.3927C23.8641 3.79114 24.5234 5.64563 24.4156 7.53662L24.4155 15.0286C24.509 16.8976 23.8491 18.7261 22.5835 20.1046C21.3087 21.4902 19.52 22.2902 17.6375 22.3166L6.78857 22.3166ZM2.31958 7.46863V15.0286C2.31958 17.9106 4.19861 20.0006 6.78857 20.0006H17.6276C18.8738 19.9804 20.0569 19.4489 20.8995 18.5306C21.7516 17.5967 22.1913 16.3588 22.1195 15.0967V7.46863C22.2045 6.18494 21.7645 4.92181 20.9005 3.96863C20.0546 3.04749 18.8668 2.51514 17.6163 2.49664H6.78943C4.19861 2.49664 2.31958 4.58368 2.31958 7.46863ZM9.95264 12.6686L4.99866 8.68567C4.50171 8.28467 4.42053 7.55835 4.81653 7.05762C5.0061 6.81836 5.2832 6.66449 5.58655 6.63019C5.88989 6.59583 6.19434 6.68384 6.43262 6.87469L11.3787 10.8507C11.6229 11.0449 11.9258 11.1507 12.2378 11.1507C12.5537 11.1517 12.8606 11.046 13.1086 10.8506L18.0016 6.88373C18.2043 6.71753 18.4584 6.62671 18.7206 6.62665C19.0709 6.62628 19.4023 6.78571 19.6206 7.05975C20.0181 7.55896 19.9395 8.28503 19.4446 8.68768L14.5446 12.6647C13.8905 13.1848 13.0801 13.4688 12.2445 13.4707C11.4117 13.4702 10.6039 13.1866 9.95349 12.6666L9.95264 12.6686Z" fill="#8FABC1"/>
</svg>
