<svg width="48" height="48" viewBox="0 0 48 48" fill="none" xmlns="http://www.w3.org/2000/svg">
<rect width="48" height="48" rx="8" fill="#299D91"/>
<g clip-path="url(#clip0_112_3246)">
<path d="M33.26 24.8185H29.4431V22.91H33.26V24.8185ZM33.26 25.909H29.4431V27.8175H33.26V25.909ZM33.26 16.9121H29.4431V18.8205H33.26V16.9121ZM33.26 19.9111H29.4431V21.8195H33.26V19.9111ZM33.26 28.908H29.4431V30.8165H33.26V28.908ZM35.8964 32.6704C35.7873 33.2375 35.1057 33.251 34.6504 33.2702H26.1715V35.7238H24.4785L12 33.5428V14.4612L24.5521 12.2773H26.1715V14.4502H34.3587C34.8195 14.4693 35.3266 14.4366 35.7273 14.7119C36.0082 15.1154 35.9809 15.628 36 16.0915L35.9891 30.2848C35.9755 31.0782 36.0627 31.8879 35.8964 32.6704ZM21.9975 28.3927C21.245 26.866 20.4789 25.3501 19.7292 23.8234C20.4707 22.3375 21.2014 20.8462 21.9293 19.3549C21.3105 19.3849 20.6916 19.4231 20.0754 19.4667C19.6147 20.5872 19.0776 21.6778 18.7177 22.8365C18.3824 21.7432 17.938 20.6908 17.5318 19.6248C16.932 19.6575 16.3321 19.693 15.7324 19.7284C16.3649 21.1243 17.0383 22.5011 17.6517 23.9052C16.9292 25.2683 16.2531 26.6506 15.5524 28.022C16.1495 28.0465 16.7466 28.071 17.3436 28.0792C17.769 26.9941 18.2978 25.9499 18.6686 24.843C19.0013 26.0317 19.5656 27.1304 20.0291 28.2673C20.6861 28.3137 21.3404 28.3546 21.9975 28.3927ZM34.6997 15.7451H26.1715V16.9121H28.3526V18.8205H26.1715V19.9111H28.3526V21.8195H26.1715V22.91H28.3526V24.8185H26.1715V25.909H28.3526V27.8175H26.1715V28.908H28.3526V30.8165H26.1715V32.0773H34.6997V15.7451Z" fill="white"/>
</g>
<defs>
<clipPath id="clip0_112_3246">
<rect width="24" height="24" fill="white" transform="translate(12 12)"/>
</clipPath>
</defs>
</svg>
