<svg width="15" height="20" viewBox="0 0 15 20" fill="none" xmlns="http://www.w3.org/2000/svg">
<path fill-rule="evenodd" clip-rule="evenodd" d="M9.395 19.8268H9.34531H5.2101C4.37908 19.8458 3.54764 19.8222 2.71896 19.7562C2.09915 19.7735 1.49956 19.535 1.06096 19.0967C0.622363 18.6585 0.383378 18.0591 0.40019 17.4393C0.333048 16.6098 0.308895 15.7774 0.327835 14.9455V5.18279C0.308469 4.35185 0.332091 3.52033 0.398487 2.69168C0.38125 2.072 0.619809 1.47252 1.05798 1.03405C1.49626 0.595612 2.09564 0.356813 2.71534 0.373811C3.54477 0.30667 4.37717 0.282516 5.20915 0.301456H9.28157C9.31498 0.29595 9.34882 0.292758 9.38265 0.29188C9.43149 0.291188 9.48033 0.295577 9.52822 0.304967C10.0658 0.25908 10.6063 0.344656 11.1034 0.554274C12.2226 1.37037 13.2075 2.35618 14.0225 3.47606C14.2306 3.97146 14.3155 4.50979 14.2702 5.04511C14.2856 5.12866 14.2855 5.21432 14.2702 5.29787L14.2701 14.9446C14.289 15.7761 14.2648 16.6079 14.1978 17.4368C14.2146 18.0563 13.9757 18.6556 13.5373 19.0938C13.0989 19.532 12.4996 19.7705 11.88 19.7536C11.0734 19.8194 10.264 19.8435 9.45501 19.826L9.395 19.8268ZM2.87311 1.75716C2.57135 1.70287 2.26203 1.79988 2.04528 2.01684C1.82854 2.2338 1.73182 2.54317 1.78629 2.84499C1.72777 3.36799 1.72426 4.13767 1.72426 5.18017V14.9428C1.72426 15.9889 1.72426 16.7603 1.78619 17.2807C1.73256 17.5825 1.83003 17.8915 2.04699 18.1079C2.26405 18.3244 2.57326 18.4211 2.87492 18.3668C3.3979 18.4252 4.16763 18.4295 5.21008 18.4295H9.39412C9.40976 18.4295 9.42636 18.4295 9.44296 18.4295C10.4575 18.4295 11.2194 18.4243 11.7302 18.3668C12.0317 18.4204 12.3404 18.3234 12.5571 18.1071C12.7737 17.8907 12.8712 17.5822 12.8181 17.2807C12.8774 16.7577 12.8809 15.9862 12.8809 14.9437V5.8784H9.39423C9.20929 5.87842 9.03192 5.80495 8.90115 5.67418C8.77038 5.54341 8.69685 5.36603 8.69685 5.18107V1.69441H5.21018C4.16667 1.69441 3.39354 1.69877 2.87311 1.75716ZM10.0914 4.48372H12.865C12.8616 4.35082 12.832 4.21989 12.7779 4.09846C12.4642 3.6535 12.1001 3.24632 11.6928 2.88513C11.3312 2.47837 10.9247 2.11398 10.481 1.799C10.3582 1.74532 10.2263 1.71574 10.0922 1.71185L10.0914 4.48372ZM6.97087 16.2407L3.79108 13.06C3.60263 12.8718 3.529 12.5973 3.59784 12.34C3.66669 12.0827 3.86747 11.8817 4.12476 11.8127C4.38194 11.7436 4.65646 11.817 4.84491 12.0053L6.80701 13.9674V7.64346C6.80711 7.44683 6.88522 7.25822 7.02439 7.11926C7.16357 6.98029 7.35222 6.90233 7.54886 6.90254C7.96235 6.90259 8.29752 7.23782 8.29752 7.65131V13.9674L10.2596 12.0062C10.4469 11.8129 10.7238 11.7355 10.984 11.8038C11.2443 11.8721 11.4475 12.0753 11.5158 12.3356C11.5841 12.5959 11.5068 12.8728 11.3135 13.06L8.09961 16.2747C7.9532 16.4347 7.74433 16.523 7.52747 16.5165C7.31062 16.5099 7.10739 16.4093 6.97087 16.2407V16.2407Z" fill="#809FB8"/>
</svg>
