<svg width="22" height="18" viewBox="0 0 22 18" fill="none" xmlns="http://www.w3.org/2000/svg">
<path fill-rule="evenodd" clip-rule="evenodd" d="M3 18C1.34314 18 0 16.6568 0 15V10C0 9.99101 0 9.98295 0 9.97416C0 9.96537 0 9.96708 0 9.96317C0 9.95927 0 9.95316 0 9.94828V9.9224C0 9.9163 0 9.91044 0 9.90434V9.89726V9.87724V9.87113V9.84916V9.82621C0.0140381 9.74735 0.0375366 9.67045 0.0700684 9.59721L3.53998 1.78813C4.02222 0.696084 5.10614 -0.00606404 6.29999 3.94743e-05H15.7C16.8876 -0.000692948 17.964 0.699014 18.445 1.78495L21.901 9.56303C21.9362 9.63554 21.9623 9.7122 21.979 9.79105V9.81108V9.81718V9.83427V9.8433V9.85722V9.86918V9.88114V9.89408V9.90605C21.979 9.90605 21.979 9.91508 21.979 9.91996C21.979 9.92485 21.979 9.92704 21.979 9.92997C21.979 9.9329 21.979 9.93998 21.979 9.94486C21.979 9.94975 21.979 9.95194 21.979 9.95487V9.97099C21.979 9.98002 21.979 9.98808 21.979 9.99686V14.9969C21.979 16.6536 20.6359 17.9969 18.979 17.9969L3 18ZM2 15C2 15.5523 2.44769 16 3 16H19C19.5523 16 20 15.5523 20 15V11H15.535L13.835 13.555C13.6489 13.834 13.3353 14.001 13 14H9C8.66534 14.0005 8.35272 13.8333 8.16699 13.555L6.46698 11H2V15ZM7 9.00004C7.33466 8.99955 7.64728 9.16679 7.83301 9.44511L9.53302 12H12.463L14.163 9.44511C14.3495 9.16557 14.6639 8.99833 15 9.00004H19.462L16.617 2.59501C16.4565 2.23246 16.0972 1.99906 15.701 1.9998L6.30096 2.00004C5.90509 1.99955 5.54633 2.23271 5.38599 2.59477L2.539 9.00004H7Z" fill="white" fill-opacity="0.7"/>
</svg>
