<svg width="20" height="19" viewBox="0 0 20 19" fill="none" xmlns="http://www.w3.org/2000/svg">
<path fill-rule="evenodd" clip-rule="evenodd" d="M16.5 18.5H3.5C2.57174 18.5 1.6815 18.1313 1.02513 17.4749C0.368749 16.8185 0 15.9283 0 15V1.94304C0 0.876041 1.056 0.199041 1.985 0.521041C2.118 0.567041 2.248 0.634041 2.372 0.723041L2.547 0.848041C2.97266 1.15007 3.48188 1.31189 4.0038 1.311C4.52572 1.3101 5.03438 1.14653 5.459 0.843041C6.05504 0.418855 6.76843 0.190918 7.5 0.190918C8.23157 0.190918 8.94496 0.418855 9.541 0.843041C9.96562 1.14653 10.4743 1.3101 10.9962 1.311C11.5181 1.31189 12.0273 1.15007 12.453 0.848041L12.628 0.723041C13.621 0.0130408 15 0.723041 15 1.94304V9.50004H18.5C18.6989 9.50004 18.8897 9.57906 19.0303 9.71971C19.171 9.86036 19.25 10.0511 19.25 10.25V15.75C19.25 16.4794 18.9603 17.1789 18.4445 17.6946C17.9288 18.2103 17.2293 18.5 16.5 18.5ZM15.25 11V15.75C15.25 16.0816 15.3817 16.3995 15.6161 16.6339C15.8505 16.8683 16.1685 17 16.5 17C16.8315 17 17.1495 16.8683 17.3839 16.6339C17.6183 16.3995 17.75 16.0816 17.75 15.75V11H15.25ZM11 6.75004C11 6.55113 10.921 6.36036 10.7803 6.21971C10.6397 6.07906 10.4489 6.00004 10.25 6.00004H4.25C4.05109 6.00004 3.86032 6.07906 3.71967 6.21971C3.57902 6.36036 3.5 6.55113 3.5 6.75004C3.5 6.94895 3.57902 7.13972 3.71967 7.28037C3.86032 7.42102 4.05109 7.50004 4.25 7.50004H10.25C10.4489 7.50004 10.6397 7.42102 10.7803 7.28037C10.921 7.13972 11 6.94895 11 6.75004ZM10 9.75004C10 9.55113 9.92098 9.36036 9.78033 9.21971C9.63968 9.07906 9.44891 9.00004 9.25 9.00004H4.25C4.05109 9.00004 3.86032 9.07906 3.71967 9.21971C3.57902 9.36036 3.5 9.55113 3.5 9.75004C3.5 9.94895 3.57902 10.1397 3.71967 10.2804C3.86032 10.421 4.05109 10.5 4.25 10.5H9.25C9.44891 10.5 9.63968 10.421 9.78033 10.2804C9.92098 10.1397 10 9.94895 10 9.75004ZM10.25 12C10.4489 12 10.6397 12.0791 10.7803 12.2197C10.921 12.3604 11 12.5511 11 12.75C11 12.949 10.921 13.1397 10.7803 13.2804C10.6397 13.421 10.4489 13.5 10.25 13.5H4.25C4.05109 13.5 3.86032 13.421 3.71967 13.2804C3.57902 13.1397 3.5 12.949 3.5 12.75C3.5 12.5511 3.57902 12.3604 3.71967 12.2197C3.86032 12.0791 4.05109 12 4.25 12H10.25Z" fill="white"/>
</svg>
