<svg width="27" height="26" viewBox="0 0 27 26" fill="none" xmlns="http://www.w3.org/2000/svg">
<path fill-rule="evenodd" clip-rule="evenodd" d="M6.50598 25.031C3.5376 25.0647 1.06818 22.7568 0.901001 19.793L0.89502 19.542V6.47607C0.917908 3.50854 3.27618 1.08691 6.242 0.985107L6.49902 0.978027H12.347C15.3158 0.944092 17.7858 3.25195 17.953 6.21631L17.9581 7.57007C17.9431 8.19067 17.4572 8.69727 16.8377 8.73828C16.2183 8.77954 15.6697 8.34106 15.5731 7.72778L15.563 7.58911V6.47607C15.5465 4.79126 14.219 3.41162 12.5361 3.33008H12.3361H6.50409C4.81824 3.3147 3.4118 4.61426 3.29401 6.2959L3.28906 6.48926V19.5403C3.30615 21.2246 4.63361 22.6035 6.31598 22.6843L6.51605 22.6904H12.3591C14.0386 22.7065 15.4407 21.4128 15.5591 19.7373L15.5641 18.4456C15.5767 17.823 16.0636 17.3135 16.6851 17.2725C17.3066 17.2317 17.856 17.6731 17.9501 18.2888L17.959 18.4275V19.5535C17.9337 22.5107 15.5856 24.9246 12.63 25.0315L12.3651 25.0376L6.50598 25.031ZM20.543 17.2551C20.127 16.8459 20.079 16.1916 20.4309 15.7263L20.5309 15.6121L21.999 14.178H10.475C9.85211 14.188 9.3302 13.7092 9.28687 13.0876C9.24347 12.4663 9.69373 11.9194 10.312 11.843L10.455 11.832H22L20.546 10.417C20.1288 10.0095 20.0779 9.35596 20.427 8.88892L20.527 8.77393C20.9505 8.35352 21.6145 8.29688 22.103 8.63989L22.2209 8.73999L25.731 12.1609C25.9659 12.3794 26.0989 12.686 26.098 13.0068C26.0962 13.3308 25.9604 13.6394 25.723 13.8599L22.2369 17.2598C21.765 17.717 21.015 17.717 20.543 17.2598V17.2551Z" fill="white"/>
</svg>
