<svg width="20" height="20" viewBox="0 0 20 20" fill="none" xmlns="http://www.w3.org/2000/svg">
<rect x="0.5" y="0.5" width="19" height="19" rx="3.5" stroke="#299D91"/>
<path d="M9.99998 14.9001C10.7732 14.9001 11.4 14.2733 11.4 13.5001C11.4 12.7269 10.7732 12.1001 9.99998 12.1001C9.22678 12.1001 8.59998 12.7269 8.59998 13.5001C8.59998 14.2733 9.22678 14.9001 9.99998 14.9001Z" fill="#299D91"/>
<path d="M9.99998 11.4001C10.7732 11.4001 11.4 10.7733 11.4 10.0001C11.4 9.2269 10.7732 8.6001 9.99998 8.6001C9.22678 8.6001 8.59998 9.2269 8.59998 10.0001C8.59998 10.7733 9.22678 11.4001 9.99998 11.4001Z" fill="#299D91"/>
<path d="M9.99998 7.9001C10.7732 7.9001 11.4 7.2733 11.4 6.5001C11.4 5.7269 10.7732 5.1001 9.99998 5.1001C9.22678 5.1001 8.59998 5.7269 8.59998 6.5001C8.59998 7.2733 9.22678 7.9001 9.99998 7.9001Z" fill="#299D91"/>
</svg>
