<svg width="57" height="56" viewBox="0 0 57 56" fill="none" xmlns="http://www.w3.org/2000/svg">
<circle cx="28.6243" cy="28.0038" r="27.7875" fill="#F4F7FE"/>
<g clip-path="url(#clip0_17_2658)">
<path d="M28.3001 26.654C25.2174 25.8527 24.2261 25.0243 24.2261 23.7342C24.2261 22.254 25.5977 21.2219 27.8927 21.2219C29.8211 21.2219 30.7853 21.9552 31.1384 23.1231C31.3013 23.6663 31.7495 24.0737 32.3198 24.0737H32.7273C33.6235 24.0737 34.2618 23.191 33.9495 22.349C33.3791 20.7466 32.0482 19.4157 29.9297 18.8997V17.9627C29.9297 16.8355 29.0199 15.9256 27.8927 15.9256C26.7656 15.9256 25.8557 16.8355 25.8557 17.9627V18.8589C23.2211 19.4293 21.1026 21.1404 21.1026 23.7614C21.1026 26.8984 23.6964 28.4601 27.4853 29.37C30.8804 30.1848 31.5594 31.3799 31.5594 32.6428C31.5594 33.5798 30.8939 35.0737 27.8927 35.0737C25.652 35.0737 24.4977 34.2724 24.0495 33.1317C23.8458 32.6021 23.3841 32.2218 22.8273 32.2218H22.4471C21.5372 32.2218 20.8989 33.1453 21.2384 33.9872C22.0125 35.8749 23.8187 36.9885 25.8557 37.423V38.3329C25.8557 39.4601 26.7656 40.3699 27.8927 40.3699C29.0199 40.3699 29.9297 39.4601 29.9297 38.3329V37.4502C32.5779 36.9477 34.6828 35.4132 34.6828 32.6292C34.6828 28.7725 31.3828 27.4552 28.3001 26.654Z" fill="#191919"/>
</g>
<defs>
<clipPath id="clip0_17_2658">
<rect width="32.5924" height="32.5924" fill="white" transform="translate(12.2757 11.8516)"/>
</clipPath>
</defs>
</svg>
