<svg width="27" height="20" viewBox="0 0 27 20" fill="none" xmlns="http://www.w3.org/2000/svg">
<path fill-rule="evenodd" clip-rule="evenodd" d="M8.00002 0.000105591C6.80715 -0.0284589 5.61355 0.0049884 4.42409 0.100203C3.53548 0.0760333 2.67605 0.418563 2.04763 1.04722C1.41921 1.67613 1.07723 2.53575 1.10201 3.42418C0.992392 3.94176 0.958029 4.47252 1.00002 5.00011V15.0001C0.957052 15.5277 0.990744 16.0585 1.1 16.5763C1.07583 17.465 1.41836 18.3243 2.04708 18.9527C2.67586 19.5809 3.53542 19.923 4.42397 19.8981C5.61208 19.9933 6.80434 20.0267 7.99593 19.9982H18.996C20.1889 20.027 21.3825 19.9935 22.572 19.8981C23.4607 19.9225 24.3203 19.5802 24.9488 18.9513C25.5772 18.3224 25.9191 17.4625 25.894 16.5738C26.0049 16.0572 26.0406 15.5272 26 15.0001V5.00011C26.0431 4.47227 26.0094 3.94127 25.9 3.4232C25.924 2.53477 25.5814 1.6754 24.9528 1.04722C24.3241 0.418807 23.4646 0.0767657 22.5761 0.10118C21.3866 0.00596497 20.193 -0.0277264 19 0.000105591H8.00002ZM8.00002 2.00011H19C20.5 2.00011 21.6 2.00621 22.35 2.09019C22.7829 2.01182 23.2265 2.1505 23.5378 2.46129C23.8491 2.77183 23.9885 3.21544 23.911 3.6483C24.0206 4.09019 24.0507 4.54796 24 5.00035V6.00011H20C19.9264 5.99889 19.8529 6.00621 19.781 6.02208C17.6613 6.12804 15.997 7.87779 15.997 10.0001C15.997 12.1224 17.6613 13.8722 19.781 13.9781C19.853 13.9933 19.9264 14.0006 20 14.0001H24V15.0001C24.0501 15.4518 24.0196 15.909 23.91 16.3502C23.9884 16.7833 23.8497 17.2272 23.5388 17.5384C23.2279 17.8497 22.7841 17.9891 22.351 17.9112C21.605 17.9952 20.496 18.0023 18.999 18.0023H8.00002C7.618 18.0023 7.33199 17.9962 7.00002 17.9942V2.00914C7.33199 2.00914 7.618 2.00108 8.00002 2.00108V2.00011ZM5.00002 2.07017V17.9291C4.90005 17.921 4.74404 17.92 4.65005 17.91C4.21712 17.9879 3.77358 17.849 3.46236 17.5382C3.15114 17.2274 3.01174 16.784 3.08907 16.3509C2.97945 15.9093 2.9493 15.452 3.00002 14.9999V5.00011C2.94997 4.5482 2.98043 4.09117 3.09011 3.65001C3.01211 3.21715 3.15096 2.77354 3.46187 2.46251C3.77273 2.15123 4.21621 2.01207 4.64907 2.08995C4.74306 2.07896 4.89504 2.07896 5.00106 2.07091L5.00002 2.07017ZM20 8.00011H24V12.0001H20C19.2855 12.0001 18.6253 11.619 18.268 11.0001C17.9107 10.3812 17.9107 9.619 18.268 9.00011C18.6253 8.38121 19.2855 8.00011 20 8.00011ZM20 9.00011C19.4477 9.00011 19 9.44786 19 10.0001C19 10.5524 19.4477 11.0001 20 11.0001C20.5523 11.0001 21 10.5524 21 10.0001C21 9.44786 20.5523 9.00011 20 9.00011Z" fill="white" fill-opacity="0.7"/>
</svg>
