<svg width="22" height="20" viewBox="0 0 22 20" fill="none" xmlns="http://www.w3.org/2000/svg">
<path fill-rule="evenodd" clip-rule="evenodd" d="M15 20H3C1.34314 20 0 18.6567 0 17V7C0 5.34326 1.34314 4 3 4H6V3C6 1.34326 7.34314 0 9 0H13C14.6569 0 16 1.34326 16 3V4H19C20.6569 4 22 5.34326 22 7V17C22 18.6567 20.6569 20 19 20H15ZM19 18C19.5523 18 20 17.5522 20 17V7C20 6.44775 19.5523 6 19 6H16V18H19ZM14 18V6H8V18H14ZM2 7V17C2 17.5522 2.44769 18 3 18H6V6H3C2.44769 6 2 6.44775 2 7ZM14 4V3C14 2.44775 13.5523 2 13 2H9C8.44769 2 8 2.44775 8 3V4H14Z" fill="white" fill-opacity="0.7"/>
</svg>
