<svg width="20" height="20" viewBox="0 0 20 20" fill="none" xmlns="http://www.w3.org/2000/svg">
<path fill-rule="evenodd" clip-rule="evenodd" d="M18.2099 19.6179L13.6989 15.1059C10.181 17.8788 5.11152 17.4295 2.13624 14.0811C-0.839098 10.7327 -0.689196 5.64558 2.47816 2.47823C5.64552 -0.689194 10.7327 -0.839096 14.0811 2.13618C17.4295 5.11153 17.8788 10.181 15.1058 13.6988L19.6168 18.2089C19.9077 18.4515 20.0365 18.8376 19.9496 19.2063C19.8627 19.5749 19.575 19.8628 19.2064 19.95C18.8378 20.0371 18.4516 19.9086 18.2088 19.6179H18.2099ZM1.98884 8.4579C1.98793 11.0592 3.54567 13.4087 5.94282 14.4209C8.33992 15.4329 11.1101 14.9108 12.9743 13.0955C12.9927 13.0731 13.0122 13.0519 13.0329 13.0319C13.0535 13.012 13.0745 12.9926 13.0958 12.974C15.1315 10.8834 15.5164 7.68898 14.0352 5.17482C12.5542 2.66066 9.57356 1.44881 6.75825 2.21608C3.94295 2.98335 1.98945 5.53993 1.98878 8.4579H1.98884Z" fill="#99B2C6"/>
</svg>
