<svg width="16" height="16" viewBox="0 0 16 16" fill="none" xmlns="http://www.w3.org/2000/svg">
<g clip-path="url(#clip0_112_775)">
<path d="M7.97041 2C9.60481 2 11.3488 2.62 12.9176 3.9472C14.0768 4.928 15.08 6.1888 15.928 7.7248C16.016 7.8832 16.024 8.076 15.9496 8.2408C15.1592 10.0008 14.1136 11.3464 12.8128 12.2664C11.152 13.44 9.39921 14 7.99921 14C6.42081 14 5.01201 13.58 3.40721 12.3248C2.14561 11.3392 1.03601 10.004 0.0760079 8.3248C0.029127 8.24264 0.0030842 8.15024 0.0001556 8.05569C-0.002773 7.96114 0.0175018 7.86731 0.0592079 7.7824C0.646408 6.588 1.54001 5.4224 2.73681 4.2808C4.35041 2.7424 6.26641 2 7.97041 2ZM7.99921 4.7248C6.28081 4.7248 4.88721 6.1584 4.88721 7.9272C4.88721 9.6952 6.28081 11.1288 7.99921 11.1288C9.71841 11.1288 11.1112 9.6952 11.1112 7.9272C11.1112 6.1592 9.71841 4.7248 8.00001 4.7248H7.99921ZM7.99921 5.8552C9.11121 5.8552 10.0128 6.7832 10.0128 7.9272C10.0128 9.0712 9.11121 9.9992 7.99921 9.9992C6.88721 9.9992 5.98561 9.0712 5.98561 7.9272C5.98561 6.7832 6.88721 5.8552 7.99921 5.8552Z" fill="#ABABAB"/>
</g>
<defs>
<clipPath id="clip0_112_775">
<rect width="16" height="16" fill="white"/>
</clipPath>
</defs>
</svg>
